<svg xmlns="http://www.w3.org/2000/svg" viewBox="0 0 920.0 400.0" style="overflow: hidden;">
<g transform="translate(0.0, 0.0)">
<defs id="defs-4c697e"><g class="clips"><clippath class="plotclip" id="clip4c697exyplot"><rect height="17.599999999999966" width="687"></rect></clippath><clippath class="plotclip" id="clip4c697ex2y2plot"><rect height="158.4" width="687"></rect></clippath><clippath class="axesclip" id="clip4c697ex"><rect height="400" width="687" x="80" y="0"></rect></clippath><clippath class="axesclip" id="clip4c697ey"><rect height="17.599999999999966" width="920" x="0" y="100"></rect></clippath><clippath class="axesclip" id="clip4c697exy"><rect height="17.599999999999966" width="687" x="80" y="100"></rect></clippath><clippath class="axesclip" id="clip4c697ey2"><rect height="158.4" width="920" x="0" y="161.59999999999997"></rect></clippath><clippath class="axesclip" id="clip4c697exy2"><rect height="158.4" width="687" x="80" y="161.59999999999997"></rect></clippath><clippath class="axesclip" id="clip4c697ex2"><rect height="400" width="687" x="80" y="0"></rect></clippath><clippath class="axesclip" id="clip4c697ex2y"><rect height="17.599999999999966" width="687" x="80" y="100"></rect></clippath><clippath class="axesclip" id="clip4c697ex2y2"><rect height="158.4" width="687" x="80" y="161.59999999999997"></rect></clippath></g><g class="gradients"></g><g class="patterns"></g></defs><g class="bglayer"><rect class="bg" height="17.599999999999966" style="fill: rgb(229, 236, 246); fill-opacity: 1; stroke-width: 0;" width="687" x="80" y="100"></rect><rect class="bg" height="158.4" style="fill: rgb(229, 236, 246); fill-opacity: 1; stroke-width: 0;" width="687" x="80" y="161.59999999999997"></rect></g><g class="draglayer cursor-crosshair"><g class="xy"><rect class="nsewdrag drag cursor-pointer" data-subplot="xy" height="17.599999999999966" style="fill: transparent; stroke-width: 0; pointer-events: all;" width="687" x="80" y="100"></rect><rect class="nwdrag drag cursor-pointer" data-subplot="xy" height="20" style="fill: transparent; stroke-width: 0; pointer-events: none;" width="20" x="60" y="80"></rect><rect class="nedrag drag cursor-pointer" data-subplot="xy" height="20" style="fill: transparent; stroke-width: 0; pointer-events: none;" width="20" x="767" y="80"></rect><rect class="swdrag drag cursor-pointer" data-subplot="xy" height="20" style="fill: transparent; stroke-width: 0; pointer-events: none;" width="20" x="60" y="117.59999999999997"></rect><rect class="sedrag drag cursor-pointer" data-subplot="xy" height="20" style="fill: transparent; stroke-width: 0; pointer-events: none;" width="20" x="767" y="117.59999999999997"></rect><rect class="ewdrag drag cursor-pointer" data-subplot="xy" height="20" style="fill: transparent; stroke-width: 0; pointer-events: none;" width="549.6" x="148.7" y="118.09999999999997"></rect><rect class="wdrag drag cursor-pointer" data-subplot="xy" height="20" style="fill: transparent; stroke-width: 0; pointer-events: none;" width="68.7" x="80" y="118.09999999999997"></rect><rect class="edrag drag cursor-pointer" data-subplot="xy" height="20" style="fill: transparent; stroke-width: 0; pointer-events: none;" width="68.7" x="698.3000000000001" y="118.09999999999997"></rect><rect class="nsdrag drag cursor-pointer" data-subplot="xy" height="14.079999999999973" style="fill: transparent; stroke-width: 0; pointer-events: none;" width="20" x="59.5" y="101.75999999999999"></rect><rect class="sdrag drag cursor-pointer" data-subplot="xy" height="1.7599999999999967" style="fill: transparent; stroke-width: 0; pointer-events: none;" width="20" x="59.5" y="115.83999999999997"></rect><rect class="ndrag drag cursor-pointer" data-subplot="xy" height="1.7599999999999967" style="fill: transparent; stroke-width: 0; pointer-events: none;" width="20" x="59.5" y="100"></rect></g><g class="x2y2"><rect class="nsewdrag drag cursor-ew-resize" data-subplot="x2y2" height="158.4" style="fill: transparent; stroke-width: 0; pointer-events: all;" width="687" x="80" y="161.59999999999997"></rect><rect class="nwdrag drag cursor-w-resize" data-subplot="x2y2" height="20" style="fill: transparent; stroke-width: 0; pointer-events: all;" width="20" x="60" y="141.59999999999997"></rect><rect class="nedrag drag cursor-e-resize" data-subplot="x2y2" height="20" style="fill: transparent; stroke-width: 0; pointer-events: all;" width="20" x="767" y="141.59999999999997"></rect><rect class="swdrag drag cursor-w-resize" data-subplot="x2y2" height="20" style="fill: transparent; stroke-width: 0; pointer-events: all;" width="20" x="60" y="320"></rect><rect class="sedrag drag cursor-e-resize" data-subplot="x2y2" height="20" style="fill: transparent; stroke-width: 0; pointer-events: all;" width="20" x="767" y="320"></rect><rect class="ewdrag drag cursor-ew-resize" data-subplot="x2y2" height="20" style="fill: transparent; stroke-width: 0; pointer-events: all;" width="549.6" x="148.7" y="320.5"></rect><rect class="wdrag drag cursor-w-resize" data-subplot="x2y2" height="20" style="fill: transparent; stroke-width: 0; pointer-events: all;" width="68.7" x="80" y="320.5"></rect><rect class="edrag drag cursor-e-resize" data-subplot="x2y2" height="20" style="fill: transparent; stroke-width: 0; pointer-events: all;" width="68.7" x="698.3000000000001" y="320.5"></rect><rect class="nsdrag drag cursor-pointer" data-subplot="x2y2" height="126.72000000000001" style="fill: transparent; stroke-width: 0; pointer-events: none;" width="20" x="59.5" y="177.43999999999997"></rect><rect class="sdrag drag cursor-pointer" data-subplot="x2y2" height="15.840000000000002" style="fill: transparent; stroke-width: 0; pointer-events: none;" width="20" x="59.5" y="304.15999999999997"></rect><rect class="ndrag drag cursor-pointer" data-subplot="x2y2" height="15.840000000000002" style="fill: transparent; stroke-width: 0; pointer-events: none;" width="20" x="59.5" y="161.59999999999997"></rect></g></g><g class="layer-below"><g class="imagelayer"></g><g class="shapelayer"></g></g><g class="cartesianlayer"><g class="subplot xy"><g class="layer-subplot"><g class="shapelayer"></g><g class="imagelayer"></g></g><g class="minor-gridlayer"><g class="x"></g><g class="y"></g></g><g class="gridlayer"><g class="x"></g><g class="y"></g></g><g class="zerolinelayer"><path class="xzl zl crisp" d="M0,100v17.599999999999966" style="stroke: rgb(255, 255, 255); stroke-opacity: 1; stroke-width: 2px;" transform="translate(80,0)"></path></g><path class="xlines-below"></path><path class="ylines-below"></path><g class="overlines-below"></g><g class="xaxislayer-below"></g><g class="yaxislayer-below"></g><g class="overaxes-below"></g><g class="plot" clip-path="url(#clip4c697exyplot)" transform="translate(80,100)"><g class="barlayer mlayer"><g class="trace bars" style="opacity: 1;"><g class="points"><g class="point"><path d="M0,15.84V1.76H145.83V15.84Z" style="vector-effect: non-scaling-stroke; opacity: 1; stroke-width: 0.5px; fill: rgb(1, 184, 170); fill-opacity: 1; stroke: rgb(229, 236, 246); stroke-opacity: 1;"></path></g></g></g><g class="trace bars" style="opacity: 1;"><g class="points"><g class="point"><path d="M145.83,15.84V1.76H291.65V15.84Z" style="vector-effect: non-scaling-stroke; opacity: 1; stroke-width: 0.5px; fill: rgb(242, 200, 15); fill-opacity: 1; stroke: rgb(229, 236, 246); stroke-opacity: 1;"></path></g></g></g><g class="trace bars" style="opacity: 1;"><g class="points"><g class="point"><path d="M291.65,15.84V1.76H437.48V15.84Z" style="vector-effect: non-scaling-stroke; opacity: 1; stroke-width: 0.5px; fill: rgb(254, 150, 102); fill-opacity: 1; stroke: rgb(229, 236, 246); stroke-opacity: 1;"></path></g></g></g><g class="trace bars" style="opacity: 1;"><g class="points"><g class="point"><path d="M437.48,15.84V1.76H541.17V15.84Z" style="vector-effect: non-scaling-stroke; opacity: 1; stroke-width: 0.5px; fill: rgb(253, 98, 94); fill-opacity: 1; stroke: rgb(229, 236, 246); stroke-opacity: 1;"></path></g></g></g></g></g><g class="overplot"></g><path class="xlines-above crisp" d="M80,118.09999999999997H767" style="fill: none; stroke-width: 1px; stroke: rgb(0, 0, 0); stroke-opacity: 1;"></path><path class="ylines-above crisp" d="M0,0" style="fill: none;"></path><g class="overlines-above"></g><g class="xaxislayer-above"><g class="xtick"><text data-math="N" data-unformatted="0" style='font-family: "Open Sans", verdana, arial, sans-serif; font-size: 12px; fill: rgb(42, 63, 95); fill-opacity: 1; white-space: pre; opacity: 1;' text-anchor="middle" transform="translate(80,0)" x="0" y="132.99999999999997">0</text></g><g class="xtick"><text data-math="N" data-unformatted="0.05" style='font-family: "Open Sans", verdana, arial, sans-serif; font-size: 12px; fill: rgb(42, 63, 95); fill-opacity: 1; white-space: pre; opacity: 1;' text-anchor="middle" transform="translate(152.91,0)" x="0" y="132.99999999999997">0.05</text></g><g class="xtick"><text data-math="N" data-unformatted="0.1" style='font-family: "Open Sans", verdana, arial, sans-serif; font-size: 12px; fill: rgb(42, 63, 95); fill-opacity: 1; white-space: pre; opacity: 1;' text-anchor="middle" transform="translate(225.83,0)" x="0" y="132.99999999999997">0.1</text></g><g class="xtick"><text data-math="N" data-unformatted="0.15" style='font-family: "Open Sans", verdana, arial, sans-serif; font-size: 12px; fill: rgb(42, 63, 95); fill-opacity: 1; white-space: pre; opacity: 1;' text-anchor="middle" transform="translate(298.74,0)" x="0" y="132.99999999999997">0.15</text></g><g class="xtick"><text data-math="N" data-unformatted="0.2" style='font-family: "Open Sans", verdana, arial, sans-serif; font-size: 12px; fill: rgb(42, 63, 95); fill-opacity: 1; white-space: pre; opacity: 1;' text-anchor="middle" transform="translate(371.65,0)" x="0" y="132.99999999999997">0.2</text></g><g class="xtick"><text data-math="N" data-unformatted="0.25" style='font-family: "Open Sans", verdana, arial, sans-serif; font-size: 12px; fill: rgb(42, 63, 95); fill-opacity: 1; white-space: pre; opacity: 1;' text-anchor="middle" transform="translate(444.56,0)" x="0" y="132.99999999999997">0.25</text></g><g class="xtick"><text data-math="N" data-unformatted="0.3" style='font-family: "Open Sans", verdana, arial, sans-serif; font-size: 12px; fill: rgb(42, 63, 95); fill-opacity: 1; white-space: pre; opacity: 1;' text-anchor="middle" transform="translate(517.48,0)" x="0" y="132.99999999999997">0.3</text></g><g class="xtick"><text data-math="N" data-unformatted="0.35" style='font-family: "Open Sans", verdana, arial, sans-serif; font-size: 12px; fill: rgb(42, 63, 95); fill-opacity: 1; white-space: pre; opacity: 1;' text-anchor="middle" transform="translate(590.39,0)" x="0" y="132.99999999999997">0.35</text></g><g class="xtick"><text data-math="N" data-unformatted="0.4" style='font-family: "Open Sans", verdana, arial, sans-serif; font-size: 12px; fill: rgb(42, 63, 95); fill-opacity: 1; white-space: pre; opacity: 1;' text-anchor="middle" transform="translate(663.3,0)" x="0" y="132.99999999999997">0.4</text></g><g class="xtick"><text data-math="N" data-unformatted="0.45" style='font-family: "Open Sans", verdana, arial, sans-serif; font-size: 12px; fill: rgb(42, 63, 95); fill-opacity: 1; white-space: pre; opacity: 1;' text-anchor="middle" transform="translate(736.21,0)" x="0" y="132.99999999999997">0.45</text></g></g><g class="yaxislayer-above"></g><g class="overaxes-above"></g></g><g class="subplot x2y2"><g class="layer-subplot"><g class="shapelayer"></g><g class="imagelayer"></g></g><g class="minor-gridlayer"><g class="x2"></g><g class="y2"></g></g><g class="gridlayer"><g class="x2"><path class="x2grid crisp" d="M0,161.59999999999997v158.4" style="stroke: rgb(255, 255, 255); stroke-opacity: 1; stroke-width: 1px;" transform="translate(165.56,0)"></path><path class="x2grid crisp" d="M0,161.59999999999997v158.4" style="stroke: rgb(255, 255, 255); stroke-opacity: 1; stroke-width: 1px;" transform="translate(290.01,0)"></path><path class="x2grid crisp" d="M0,161.59999999999997v158.4" style="stroke: rgb(255, 255, 255); stroke-opacity: 1; stroke-width: 1px;" transform="translate(414.46,0)"></path><path class="x2grid crisp" d="M0,161.59999999999997v158.4" style="stroke: rgb(255, 255, 255); stroke-opacity: 1; stroke-width: 1px;" transform="translate(538.9100000000001,0)"></path><path class="x2grid crisp" d="M0,161.59999999999997v158.4" style="stroke: rgb(255, 255, 255); stroke-opacity: 1; stroke-width: 1px;" transform="translate(663.35,0)"></path></g><g class="y2"><path class="y2grid crisp" d="M80,0h687" style="stroke: rgb(255, 255, 255); stroke-opacity: 1; stroke-width: 1px;" transform="translate(0,242.61999999999995)"></path><path class="y2grid crisp" d="M80,0h687" style="stroke: rgb(255, 255, 255); stroke-opacity: 1; stroke-width: 1px;" transform="translate(0,176.90999999999997)"></path></g></g><g class="zerolinelayer"><path class="y2zl zl crisp" d="M80,0h687" style="stroke: rgb(255, 255, 255); stroke-opacity: 1; stroke-width: 2px;" transform="translate(0,308.3299999999999)"></path></g><path class="xlines-below"></path><path class="ylines-below"></path><g class="overlines-below"></g><g class="xaxislayer-below"></g><g class="yaxislayer-below"></g><g class="overaxes-below"></g><g class="plot" clip-path="url(#clip4c697ex2y2plot)" transform="translate(80,161.59999999999997)"><g class="scatterlayer mlayer"><g class="trace scatter tracef3de67ec-5a77-431d-8d96-3a4ea08a39d5" style="stroke-miterlimit: 2;"><g class="fills"><g><path class="js-fill" d="M1088.14,146.73L-8.22,146.73L-8.22,94.03L9.51,81.16L9.51,81.16L14.16,78.46L14.7,78.17L28.12,72.83L36.53,71.43L38.3,71.33L47.08,71.79L51.22,72.53L58.91,74.63L76.21,81.72L96.41,90.66L103.66,93.35L126.8,99.38L129.31,99.84L160.66,105.49L168.45,107.37L186.67,112.98L186.67,112.98L192.39,115.02L237.9,131.52L258.18,136.96L275.01,140.23L282.65,141.36L305.03,143.54L327.4,144.31L439.28,142.94L461.65,143.02L528.77,143.08L551.15,143.89L618.27,146.31L640.65,146.58L1043.39,144.3L1065.77,143.42L1088.14,143.06" style="fill: rgb(0, 0, 139); fill-opacity: 0.5; stroke-width: 0;"></path></g></g><g class="errorbars"></g><g class="lines"><path class="js-line" d="M-8.22,94.03L9.51,81.16L9.51,81.16L14.16,78.46L14.7,78.17L28.12,72.83L36.53,71.43L38.3,71.33L47.08,71.79L51.22,72.53L58.91,74.63L76.21,81.72L96.41,90.66L103.66,93.35L126.8,99.38L129.31,99.84L160.66,105.49L168.45,107.37L186.67,112.98L186.67,112.98L192.39,115.02L237.9,131.52L258.18,136.96L275.01,140.23L282.65,141.36L305.03,143.54L327.4,144.31L439.28,142.94L461.65,143.02L528.77,143.08L551.15,143.89L618.27,146.31L640.65,146.58L1043.39,144.3L1065.77,143.42L1088.14,143.06" style="vector-effect: non-scaling-stroke; fill: none; stroke: rgb(0, 0, 139); stroke-opacity: 1; stroke-width: 2px; opacity: 1;"></path></g><g class="points"></g><g class="text"></g></g><g class="trace scatter trace5271bddb-0de5-4573-be4d-fd4c46eee1cb" style="stroke-miterlimit: 2; opacity: 1;"><g class="fills"></g><g class="errorbars"></g><g class="lines"><path class="js-line" d="M129.31,146.73L129.31,99.84" style="vector-effect: non-scaling-stroke; fill: none; stroke: rgb(0, 0, 139); stroke-opacity: 1; stroke-width: 2px; opacity: 1; stroke-dasharray: 9px, 9px;"></path></g><g class="points"><path class="point" d="M3,0A3,3 0 1,1 0,-3A3,3 0 0,1 3,0Z" style="opacity: 1; stroke-width: 0px; fill: rgb(0, 0, 139); fill-opacity: 1;" transform="translate(129.31,146.73)"></path><path class="point" d="M3,0A3,3 0 1,1 0,-3A3,3 0 0,1 3,0Z" style="opacity: 1; stroke-width: 0px; fill: rgb(0, 0, 139); fill-opacity: 1;" transform="translate(129.31,99.84)"></path></g><g class="text"></g></g><g class="trace scatter tracef7410190-dead-47dd-96c0-9c4644a4ba7b" style="stroke-miterlimit: 2; opacity: 1;"><g class="fills"></g><g class="errorbars"></g><g class="lines"><path class="js-line" d="M45.29,146.73L45.29,71.57" style="vector-effect: non-scaling-stroke; fill: none; stroke: rgb(0, 0, 139); stroke-opacity: 1; stroke-width: 2px; opacity: 1;"></path></g><g class="points"></g><g class="text"></g></g><g class="trace scatter trace86c1b4c6-4a21-4209-881f-45b235e50bf9" style="stroke-miterlimit: 2;"><g class="fills"><g><path class="js-fill" d="M1088.14,146.73L-8.22,146.73L-8.22,86.76L14.16,26.43L14.7,25.25L28.12,8.07L30.78,7.92L32.22,8.32L32.22,8.32L36.53,11.5L40.98,17.71L40.98,17.71L42.53,20.49L47.08,30.22L51.22,40.61L58.91,61.84L76.21,103.6L81.28,111.6L96.41,122.51L103.66,122.14L119.5,114.04L135.89,101.98L147.78,95.06L152.45,93.45L157.1,92.64L160.66,92.63L168.45,94.43L174.26,97.34L180.64,101.81L199.25,118.42L215.53,130.83L224.23,135.04L237.9,138.37L275.01,141.37L282.65,142.43L305.03,145.26L327.4,146.44L349.78,146.37L372.15,144.97L394.53,142.05L415.99,140.34L416.9,140.34L439.28,141.89L468.85,142.87L484.02,141.49L506.4,140.39L528.77,142.6L551.15,145.35L573.52,146.49L663.02,146.73L685.4,146.73L1088.14,146.73" style="fill: rgb(105, 179, 162); fill-opacity: 0.5; stroke-width: 0;"></path></g></g><g class="errorbars"></g><g class="lines"><path class="js-line" d="M-8.22,86.76L14.16,26.43L14.7,25.25L28.12,8.07L30.78,7.92L32.22,8.32L32.22,8.32L36.53,11.5L40.98,17.71L40.98,17.71L42.53,20.49L47.08,30.22L51.22,40.61L58.91,61.84L76.21,103.6L81.28,111.6L96.41,122.51L103.66,122.14L119.5,114.04L135.89,101.98L147.78,95.06L152.45,93.45L157.1,92.64L160.66,92.63L168.45,94.43L174.26,97.34L180.64,101.81L199.25,118.42L215.53,130.83L224.23,135.04L237.9,138.37L275.01,141.37L282.65,142.43L305.03,145.26L327.4,146.44L349.78,146.37L372.15,144.97L394.53,142.05L415.99,140.34L416.9,140.34L439.28,141.89L468.85,142.87L484.02,141.49L506.4,140.39L528.77,142.6L551.15,145.35L573.52,146.49L663.02,146.73L685.4,146.73L1088.14,146.73" style="vector-effect: non-scaling-stroke; fill: none; stroke: rgb(105, 179, 162); stroke-opacity: 1; stroke-width: 2px; opacity: 1;"></path></g><g class="points"></g><g class="text"></g></g><g class="trace scatter trace1a3f785c-a625-4ac1-bf53-ba031be15963" style="stroke-miterlimit: 2; opacity: 1;"><g class="fills"></g><g class="errorbars"></g><g class="lines"><path class="js-line" d="M96.41,146.73L96.41,122.51" style="vector-effect: non-scaling-stroke; fill: none; stroke: rgb(105, 179, 162); stroke-opacity: 1; stroke-width: 2px; opacity: 1; stroke-dasharray: 9px, 9px;"></path></g><g class="points"><path class="point" d="M3,0A3,3 0 1,1 0,-3A3,3 0 0,1 3,0Z" style="opacity: 1; stroke-width: 0px; fill: rgb(105, 179, 162); fill-opacity: 1;" transform="translate(96.41,146.73)"></path><path class="point" d="M3,0A3,3 0 1,1 0,-3A3,3 0 0,1 3,0Z" style="opacity: 1; stroke-width: 0px; fill: rgb(105, 179, 162); fill-opacity: 1;" transform="translate(96.41,122.51)"></path></g><g class="text"></g></g><g class="trace scatter trace8df090b6-4dc6-43ad-9797-20ddb1f7b1b5" style="stroke-miterlimit: 2; opacity: 1;"><g class="fills"></g><g class="errorbars"></g><g class="lines"><path class="js-line" d="M32.22,146.73L32.22,8.32" style="vector-effect: non-scaling-stroke; fill: none; stroke: rgb(105, 179, 162); stroke-opacity: 1; stroke-width: 2px; opacity: 1;"></path></g><g class="points"></g><g class="text"></g></g></g></g><g class="overplot"></g><path class="xlines-above crisp" d="M0,0" style="fill: none;"></path><path class="ylines-above crisp" d="M0,0" style="fill: none;"></path><g class="overlines-above"></g><g class="xaxislayer-above"><g class="x2tick"><text data-math="N" data-unformatted="0.7" style='font-family: "Open Sans", verdana, arial, sans-serif; font-size: 12px; fill: rgb(42, 63, 95); fill-opacity: 1; white-space: pre; opacity: 1;' text-anchor="middle" transform="translate(165.56,0)" x="0" y="333">0.7</text></g><g class="x2tick"><text data-math="N" data-unformatted="0.8" style='font-family: "Open Sans", verdana, arial, sans-serif; font-size: 12px; fill: rgb(42, 63, 95); fill-opacity: 1; white-space: pre; opacity: 1;' text-anchor="middle" transform="translate(290.01,0)" x="0" y="333">0.8</text></g><g class="x2tick"><text data-math="N" data-unformatted="0.9" style='font-family: "Open Sans", verdana, arial, sans-serif; font-size: 12px; fill: rgb(42, 63, 95); fill-opacity: 1; white-space: pre; opacity: 1;' text-anchor="middle" transform="translate(414.46,0)" x="0" y="333">0.9</text></g><g class="x2tick"><text data-math="N" data-unformatted="1" style='font-family: "Open Sans", verdana, arial, sans-serif; font-size: 12px; fill: rgb(42, 63, 95); fill-opacity: 1; white-space: pre; opacity: 1;' text-anchor="middle" transform="translate(538.9100000000001,0)" x="0" y="333">1</text></g><g class="x2tick"><text data-math="N" data-unformatted="1.1" style='font-family: "Open Sans", verdana, arial, sans-serif; font-size: 12px; fill: rgb(42, 63, 95); fill-opacity: 1; white-space: pre; opacity: 1;' text-anchor="middle" transform="translate(663.35,0)" x="0" y="333">1.1</text></g></g><g class="yaxislayer-above"><g class="y2tick"><text data-math="N" data-unformatted="0" style='font-family: "Open Sans", verdana, arial, sans-serif; font-size: 12px; fill: rgb(42, 63, 95); fill-opacity: 1; white-space: pre; opacity: 1;' text-anchor="end" transform="translate(0,308.3299999999999)" x="79" y="4.199999999999999">0</text></g><g class="y2tick"><text data-math="N" data-unformatted="5" style='font-family: "Open Sans", verdana, arial, sans-serif; font-size: 12px; fill: rgb(42, 63, 95); fill-opacity: 1; white-space: pre; opacity: 1;' text-anchor="end" transform="translate(0,242.61999999999995)" x="79" y="4.199999999999999">5</text></g><g class="y2tick"><text data-math="N" data-unformatted="10" style='font-family: "Open Sans", verdana, arial, sans-serif; font-size: 12px; fill: rgb(42, 63, 95); fill-opacity: 1; white-space: pre; opacity: 1;' text-anchor="end" transform="translate(0,176.90999999999997)" x="79" y="4.199999999999999">10</text></g></g><g class="overaxes-above"></g></g></g><g class="polarlayer"></g><g class="smithlayer"></g><g class="ternarylayer"></g><g class="geolayer"></g><g class="funnelarealayer"></g><g class="pielayer"></g><g class="iciclelayer"></g><g class="treemaplayer"></g><g class="sunburstlayer"></g><g class="glimages"></g>
</g>
<g transform="translate(0.0, 0.0)">
<defs id="topdefs-4c697e"><g class="clips"></g><clippath id="legend4c697e"><rect height="143" width="127" x="0" y="0"></rect></clippath></defs><g class="indicatorlayer"></g><g class="layer-above"><g class="imagelayer"></g><g class="shapelayer"></g></g><g class="infolayer"><g class="legend" pointer-events="all" transform="translate(780.74,188)"><rect class="bg" height="143" shape-rendering="crispEdges" style="stroke: rgb(68, 68, 68); stroke-opacity: 1; fill: rgb(255, 255, 255); fill-opacity: 1; stroke-width: 0px;" width="127" x="0" y="0"></rect><g class="scrollbox" clip-path="url(#legend4c697e)" transform=""><text class="legendtitletext" data-math="N" data-unformatted="Legend" style='font-family: "Open Sans", verdana, arial, sans-serif; font-size: 14px; fill: rgb(42, 63, 95); fill-opacity: 1; white-space: pre;' text-anchor="start" x="2" y="18.2">Legend</text><g class="groups"><g class="traces" style="opacity: 1;" transform="translate(0,32.7)"><text class="legendtext" data-math="N" data-unformatted="Train Dataset" style='font-family: "Open Sans", verdana, arial, sans-serif; font-size: 12px; fill: rgb(42, 63, 95); fill-opacity: 1; white-space: pre;' text-anchor="start" x="40" y="4.680000000000001">Train Dataset</text><g class="layers"><g class="legendfill"><path class="js-fill" d="M5,-2h30v6h-30z" style="stroke-width: 0; fill: rgb(0, 0, 139); fill-opacity: 0.5;"></path></g><g class="legendlines"><path class="js-line" d="M5,-2h30" style="fill: none; stroke: rgb(0, 0, 139); stroke-opacity: 1; stroke-width: 2px;"></path></g><g class="legendsymbols"><g class="legendpoints"></g></g></g><rect class="legendtoggle" height="19" pointer-events="all" style="cursor: pointer; fill: rgb(0, 0, 0); fill-opacity: 0;" width="121.234375" x="0" y="-9.5"></rect></g><g class="traces" style="opacity: 1;" transform="translate(0,51.7)"><text class="legendtext" data-math="N" data-unformatted="Train Mean" style='font-family: "Open Sans", verdana, arial, sans-serif; font-size: 12px; fill: rgb(42, 63, 95); fill-opacity: 1; white-space: pre;' text-anchor="start" x="40" y="4.680000000000001">Train Mean</text><g class="layers" style="opacity: 1;"><g class="legendfill"></g><g class="legendlines"><path class="js-line" d="M5,0h30" style="fill: none; stroke: rgb(0, 0, 139); stroke-opacity: 1; stroke-dasharray: 9px, 9px; stroke-width: 2px;"></path></g><g class="legendsymbols"><g class="legendpoints"><path class="scatterpts" d="M3,0A3,3 0 1,1 0,-3A3,3 0 0,1 3,0Z" style="opacity: 1; stroke-width: 0px; fill: rgb(0, 0, 139); fill-opacity: 1;" transform="translate(20,0)"></path></g></g></g><rect class="legendtoggle" height="19" pointer-events="all" style="cursor: pointer; fill: rgb(0, 0, 0); fill-opacity: 0;" width="121.234375" x="0" y="-9.5"></rect></g><g class="traces" style="opacity: 1;" transform="translate(0,70.7)"><text class="legendtext" data-math="N" data-unformatted="Train Median" style='font-family: "Open Sans", verdana, arial, sans-serif; font-size: 12px; fill: rgb(42, 63, 95); fill-opacity: 1; white-space: pre;' text-anchor="start" x="40" y="4.680000000000001">Train Median</text><g class="layers" style="opacity: 1;"><g class="legendfill"></g><g class="legendlines"><path class="js-line" d="M5,0h30" style="fill: none; stroke: rgb(0, 0, 139); stroke-opacity: 1; stroke-width: 2px;"></path></g><g class="legendsymbols"><g class="legendpoints"></g></g></g><rect class="legendtoggle" height="19" pointer-events="all" style="cursor: pointer; fill: rgb(0, 0, 0); fill-opacity: 0;" width="121.234375" x="0" y="-9.5"></rect></g><g class="traces" style="opacity: 1;" transform="translate(0,89.7)"><text class="legendtext" data-math="N" data-unformatted="Test Dataset" style='font-family: "Open Sans", verdana, arial, sans-serif; font-size: 12px; fill: rgb(42, 63, 95); fill-opacity: 1; white-space: pre;' text-anchor="start" x="40" y="4.680000000000001">Test Dataset</text><g class="layers"><g class="legendfill"><path class="js-fill" d="M5,-2h30v6h-30z" style="stroke-width: 0; fill: rgb(105, 179, 162); fill-opacity: 0.5;"></path></g><g class="legendlines"><path class="js-line" d="M5,-2h30" style="fill: none; stroke: rgb(105, 179, 162); stroke-opacity: 1; stroke-width: 2px;"></path></g><g class="legendsymbols"><g class="legendpoints"></g></g></g><rect class="legendtoggle" height="19" pointer-events="all" style="cursor: pointer; fill: rgb(0, 0, 0); fill-opacity: 0;" width="121.234375" x="0" y="-9.5"></rect></g><g class="traces" style="opacity: 1;" transform="translate(0,108.7)"><text class="legendtext" data-math="N" data-unformatted="Test Mean" style='font-family: "Open Sans", verdana, arial, sans-serif; font-size: 12px; fill: rgb(42, 63, 95); fill-opacity: 1; white-space: pre;' text-anchor="start" x="40" y="4.680000000000001">Test Mean</text><g class="layers" style="opacity: 1;"><g class="legendfill"></g><g class="legendlines"><path class="js-line" d="M5,0h30" style="fill: none; stroke: rgb(105, 179, 162); stroke-opacity: 1; stroke-dasharray: 9px, 9px; stroke-width: 2px;"></path></g><g class="legendsymbols"><g class="legendpoints"><path class="scatterpts" d="M3,0A3,3 0 1,1 0,-3A3,3 0 0,1 3,0Z" style="opacity: 1; stroke-width: 0px; fill: rgb(105, 179, 162); fill-opacity: 1;" transform="translate(20,0)"></path></g></g></g><rect class="legendtoggle" height="19" pointer-events="all" style="cursor: pointer; fill: rgb(0, 0, 0); fill-opacity: 0;" width="121.234375" x="0" y="-9.5"></rect></g><g class="traces" style="opacity: 1;" transform="translate(0,127.7)"><text class="legendtext" data-math="N" data-unformatted="Test Median" style='font-family: "Open Sans", verdana, arial, sans-serif; font-size: 12px; fill: rgb(42, 63, 95); fill-opacity: 1; white-space: pre;' text-anchor="start" x="40" y="4.680000000000001">Test Median</text><g class="layers" style="opacity: 1;"><g class="legendfill"></g><g class="legendlines"><path class="js-line" d="M5,0h30" style="fill: none; stroke: rgb(105, 179, 162); stroke-opacity: 1; stroke-width: 2px;"></path></g><g class="legendsymbols"><g class="legendpoints"></g></g></g><rect class="legendtoggle" height="19" pointer-events="all" style="cursor: pointer; fill: rgb(0, 0, 0); fill-opacity: 0;" width="121.234375" x="0" y="-9.5"></rect></g></g></g><rect class="scrollbar" height="0" rx="20" ry="3" style="fill: rgb(128, 139, 164); fill-opacity: 1;" width="0" x="0" y="0"></rect></g><g class="g-gtitle"><text class="gtitle" data-math="N" data-unformatted="Aspect Ratio" dy="0em" style='font-family: "Open Sans", verdana, arial, sans-serif; font-size: 17px; fill: rgb(42, 63, 95); opacity: 1; font-weight: normal; white-space: pre;' text-anchor="middle" x="460" y="50">Aspect Ratio</text></g><g class="g-xtitle"></g><g class="g-x2title"><text class="x2title" data-math="N" data-unformatted="Aspect Ratio" style='font-family: "Open Sans", verdana, arial, sans-serif; font-size: 14px; fill: rgb(42, 63, 95); opacity: 1; font-weight: normal; white-space: pre;' text-anchor="middle" x="423.5" y="360.8">Aspect Ratio</text></g><g class="g-ytitle"></g><g class="g-y2title"><text class="y2title" data-math="N" data-unformatted="Probability Density" style='font-family: "Open Sans", verdana, arial, sans-serif; font-size: 14px; fill: rgb(42, 63, 95); opacity: 1; font-weight: normal; white-space: pre;' text-anchor="middle" transform="rotate(-90,38.934375,240.79999999999995)" x="38.934375" y="240.79999999999995">Probability Density</text></g><g class="annotation" data-index="0" style="opacity: 1;"><g class="annotation-text-g" transform="rotate(0,423.5,88.49999999999999)"><g class="cursor-pointer" transform="translate(284,77)"><rect class="bg" height="22" style="stroke-width: 1px; stroke: rgb(0, 0, 0); stroke-opacity: 0; fill: rgb(0, 0, 0); fill-opacity: 0;" width="279" x="0.5" y="0.5"></rect><text class="annotation-text" data-math="N" data-unformatted="Drift Score (Kolmogorov-Smirnov)" style='font-family: "Open Sans", verdana, arial, sans-serif; font-size: 16px; fill: rgb(42, 63, 95); fill-opacity: 1; white-space: pre;' text-anchor="middle" x="139.8984375" y="18">Drift Score (Kolmogorov-Smirnov)</text></g></g></g><g class="annotation" data-index="1" style="opacity: 1;"><g class="annotation-text-g" transform="rotate(0,423.5,150.09999999999997)"><g class="cursor-pointer" transform="translate(357,139)"><rect class="bg" height="22" style="stroke-width: 1px; stroke: rgb(0, 0, 0); stroke-opacity: 0; fill: rgb(0, 0, 0); fill-opacity: 0;" width="133" x="0.5" y="0.5"></rect><text class="annotation-text" data-math="N" data-unformatted="Distribution Plot" style='font-family: "Open Sans", verdana, arial, sans-serif; font-size: 16px; fill: rgb(42, 63, 95); fill-opacity: 1; white-space: pre;' text-anchor="middle" x="66.4453125" y="18">Distribution Plot</text></g></g></g></g><g class="menulayer"></g><g class="zoomlayer"></g>
</g>
<g transform="translate(0.0, 0.0)">
<g class="hoverlayer"></g>
</g>
</svg>