<svg xmlns="http://www.w3.org/2000/svg" viewBox="0 0 920.0 400.0" style="overflow: hidden;">
<g transform="translate(0.0, 0.0)">
<defs id="defs-5f3809"><g class="clips"><clippath class="plotclip" id="clip5f3809xyplot"><rect height="17.599999999999966" width="687"></rect></clippath><clippath class="plotclip" id="clip5f3809x2y2plot"><rect height="158.4" width="687"></rect></clippath><clippath class="axesclip" id="clip5f3809x"><rect height="400" width="687" x="80" y="0"></rect></clippath><clippath class="axesclip" id="clip5f3809y"><rect height="17.599999999999966" width="920" x="0" y="100"></rect></clippath><clippath class="axesclip" id="clip5f3809xy"><rect height="17.599999999999966" width="687" x="80" y="100"></rect></clippath><clippath class="axesclip" id="clip5f3809y2"><rect height="158.4" width="920" x="0" y="161.59999999999997"></rect></clippath><clippath class="axesclip" id="clip5f3809xy2"><rect height="158.4" width="687" x="80" y="161.59999999999997"></rect></clippath><clippath class="axesclip" id="clip5f3809x2"><rect height="400" width="687" x="80" y="0"></rect></clippath><clippath class="axesclip" id="clip5f3809x2y"><rect height="17.599999999999966" width="687" x="80" y="100"></rect></clippath><clippath class="axesclip" id="clip5f3809x2y2"><rect height="158.4" width="687" x="80" y="161.59999999999997"></rect></clippath></g><g class="gradients"></g><g class="patterns"></g></defs><g class="bglayer"><rect class="bg" height="17.599999999999966" style="fill: rgb(229, 236, 246); fill-opacity: 1; stroke-width: 0;" width="687" x="80" y="100"></rect><rect class="bg" height="158.4" style="fill: rgb(229, 236, 246); fill-opacity: 1; stroke-width: 0;" width="687" x="80" y="161.59999999999997"></rect></g><g class="draglayer cursor-crosshair"><g class="xy"><rect class="nsewdrag drag cursor-pointer" data-subplot="xy" height="17.599999999999966" style="fill: transparent; stroke-width: 0; pointer-events: all;" width="687" x="80" y="100"></rect><rect class="nwdrag drag cursor-pointer" data-subplot="xy" height="20" style="fill: transparent; stroke-width: 0; pointer-events: none;" width="20" x="60" y="80"></rect><rect class="nedrag drag cursor-pointer" data-subplot="xy" height="20" style="fill: transparent; stroke-width: 0; pointer-events: none;" width="20" x="767" y="80"></rect><rect class="swdrag drag cursor-pointer" data-subplot="xy" height="20" style="fill: transparent; stroke-width: 0; pointer-events: none;" width="20" x="60" y="117.59999999999997"></rect><rect class="sedrag drag cursor-pointer" data-subplot="xy" height="20" style="fill: transparent; stroke-width: 0; pointer-events: none;" width="20" x="767" y="117.59999999999997"></rect><rect class="ewdrag drag cursor-pointer" data-subplot="xy" height="20" style="fill: transparent; stroke-width: 0; pointer-events: none;" width="549.6" x="148.7" y="118.09999999999997"></rect><rect class="wdrag drag cursor-pointer" data-subplot="xy" height="20" style="fill: transparent; stroke-width: 0; pointer-events: none;" width="68.7" x="80" y="118.09999999999997"></rect><rect class="edrag drag cursor-pointer" data-subplot="xy" height="20" style="fill: transparent; stroke-width: 0; pointer-events: none;" width="68.7" x="698.3000000000001" y="118.09999999999997"></rect><rect class="nsdrag drag cursor-pointer" data-subplot="xy" height="14.079999999999973" style="fill: transparent; stroke-width: 0; pointer-events: none;" width="20" x="59.5" y="101.75999999999999"></rect><rect class="sdrag drag cursor-pointer" data-subplot="xy" height="1.7599999999999967" style="fill: transparent; stroke-width: 0; pointer-events: none;" width="20" x="59.5" y="115.83999999999997"></rect><rect class="ndrag drag cursor-pointer" data-subplot="xy" height="1.7599999999999967" style="fill: transparent; stroke-width: 0; pointer-events: none;" width="20" x="59.5" y="100"></rect></g><g class="x2y2"><rect class="nsewdrag drag cursor-ew-resize" data-subplot="x2y2" height="158.4" style="fill: transparent; stroke-width: 0; pointer-events: all;" width="687" x="80" y="161.59999999999997"></rect><rect class="nwdrag drag cursor-w-resize" data-subplot="x2y2" height="20" style="fill: transparent; stroke-width: 0; pointer-events: all;" width="20" x="60" y="141.59999999999997"></rect><rect class="nedrag drag cursor-e-resize" data-subplot="x2y2" height="20" style="fill: transparent; stroke-width: 0; pointer-events: all;" width="20" x="767" y="141.59999999999997"></rect><rect class="swdrag drag cursor-w-resize" data-subplot="x2y2" height="20" style="fill: transparent; stroke-width: 0; pointer-events: all;" width="20" x="60" y="320"></rect><rect class="sedrag drag cursor-e-resize" data-subplot="x2y2" height="20" style="fill: transparent; stroke-width: 0; pointer-events: all;" width="20" x="767" y="320"></rect><rect class="ewdrag drag cursor-ew-resize" data-subplot="x2y2" height="20" style="fill: transparent; stroke-width: 0; pointer-events: all;" width="549.6" x="148.7" y="320.5"></rect><rect class="wdrag drag cursor-w-resize" data-subplot="x2y2" height="20" style="fill: transparent; stroke-width: 0; pointer-events: all;" width="68.7" x="80" y="320.5"></rect><rect class="edrag drag cursor-e-resize" data-subplot="x2y2" height="20" style="fill: transparent; stroke-width: 0; pointer-events: all;" width="68.7" x="698.3000000000001" y="320.5"></rect><rect class="nsdrag drag cursor-pointer" data-subplot="x2y2" height="126.72000000000001" style="fill: transparent; stroke-width: 0; pointer-events: none;" width="20" x="59.5" y="177.43999999999997"></rect><rect class="sdrag drag cursor-pointer" data-subplot="x2y2" height="15.840000000000002" style="fill: transparent; stroke-width: 0; pointer-events: none;" width="20" x="59.5" y="304.15999999999997"></rect><rect class="ndrag drag cursor-pointer" data-subplot="x2y2" height="15.840000000000002" style="fill: transparent; stroke-width: 0; pointer-events: none;" width="20" x="59.5" y="161.59999999999997"></rect></g></g><g class="layer-below"><g class="imagelayer"></g><g class="shapelayer"></g></g><g class="cartesianlayer"><g class="subplot xy"><g class="layer-subplot"><g class="shapelayer"></g><g class="imagelayer"></g></g><g class="minor-gridlayer"><g class="x"></g><g class="y"></g></g><g class="gridlayer"><g class="x"></g><g class="y"></g></g><g class="zerolinelayer"><path class="xzl zl crisp" d="M0,100v17.599999999999966" style="stroke: rgb(255, 255, 255); stroke-opacity: 1; stroke-width: 2px;" transform="translate(80,0)"></path></g><path class="xlines-below"></path><path class="ylines-below"></path><g class="overlines-below"></g><g class="xaxislayer-below"></g><g class="yaxislayer-below"></g><g class="overaxes-below"></g><g class="plot" clip-path="url(#clip5f3809xyplot)" transform="translate(80,100)"><g class="barlayer mlayer"><g class="trace bars" style="opacity: 1;"><g class="points"><g class="point"><path d="M0,15.84V1.76H158.39V15.84Z" style="vector-effect: non-scaling-stroke; opacity: 1; stroke-width: 0.5px; fill: rgb(1, 184, 170); fill-opacity: 1; stroke: rgb(229, 236, 246); stroke-opacity: 1;"></path></g></g></g></g></g><g class="overplot"></g><path class="xlines-above crisp" d="M80,118.09999999999997H767" style="fill: none; stroke-width: 1px; stroke: rgb(0, 0, 0); stroke-opacity: 1;"></path><path class="ylines-above crisp" d="M0,0" style="fill: none;"></path><g class="overlines-above"></g><g class="xaxislayer-above"><g class="xtick"><text data-math="N" data-unformatted="0" style='font-family: "Open Sans", verdana, arial, sans-serif; font-size: 12px; fill: rgb(42, 63, 95); fill-opacity: 1; white-space: pre; opacity: 1;' text-anchor="middle" transform="translate(80,0)" x="0" y="132.99999999999997">0</text></g><g class="xtick"><text data-math="N" data-unformatted="0.05" style='font-family: "Open Sans", verdana, arial, sans-serif; font-size: 12px; fill: rgb(42, 63, 95); fill-opacity: 1; white-space: pre; opacity: 1;' text-anchor="middle" transform="translate(165.88,0)" x="0" y="132.99999999999997">0.05</text></g><g class="xtick"><text data-math="N" data-unformatted="0.1" style='font-family: "Open Sans", verdana, arial, sans-serif; font-size: 12px; fill: rgb(42, 63, 95); fill-opacity: 1; white-space: pre; opacity: 1;' text-anchor="middle" transform="translate(251.75,0)" x="0" y="132.99999999999997">0.1</text></g><g class="xtick"><text data-math="N" data-unformatted="0.15" style='font-family: "Open Sans", verdana, arial, sans-serif; font-size: 12px; fill: rgb(42, 63, 95); fill-opacity: 1; white-space: pre; opacity: 1;' text-anchor="middle" transform="translate(337.63,0)" x="0" y="132.99999999999997">0.15</text></g><g class="xtick"><text data-math="N" data-unformatted="0.2" style='font-family: "Open Sans", verdana, arial, sans-serif; font-size: 12px; fill: rgb(42, 63, 95); fill-opacity: 1; white-space: pre; opacity: 1;' text-anchor="middle" transform="translate(423.5,0)" x="0" y="132.99999999999997">0.2</text></g><g class="xtick"><text data-math="N" data-unformatted="0.25" style='font-family: "Open Sans", verdana, arial, sans-serif; font-size: 12px; fill: rgb(42, 63, 95); fill-opacity: 1; white-space: pre; opacity: 1;' text-anchor="middle" transform="translate(509.38,0)" x="0" y="132.99999999999997">0.25</text></g><g class="xtick"><text data-math="N" data-unformatted="0.3" style='font-family: "Open Sans", verdana, arial, sans-serif; font-size: 12px; fill: rgb(42, 63, 95); fill-opacity: 1; white-space: pre; opacity: 1;' text-anchor="middle" transform="translate(595.25,0)" x="0" y="132.99999999999997">0.3</text></g><g class="xtick"><text data-math="N" data-unformatted="0.35" style='font-family: "Open Sans", verdana, arial, sans-serif; font-size: 12px; fill: rgb(42, 63, 95); fill-opacity: 1; white-space: pre; opacity: 1;' text-anchor="middle" transform="translate(681.13,0)" x="0" y="132.99999999999997">0.35</text></g><g class="xtick"><text data-math="N" data-unformatted="0.4" style='font-family: "Open Sans", verdana, arial, sans-serif; font-size: 12px; fill: rgb(42, 63, 95); fill-opacity: 1; white-space: pre; opacity: 1;' text-anchor="middle" transform="translate(767,0)" x="0" y="132.99999999999997">0.4</text></g></g><g class="yaxislayer-above"></g><g class="overaxes-above"></g></g><g class="subplot x2y2"><g class="layer-subplot"><g class="shapelayer"></g><g class="imagelayer"></g></g><g class="minor-gridlayer"><g class="x2"></g><g class="y2"></g></g><g class="gridlayer"><g class="x2"><path class="x2grid crisp" d="M0,161.59999999999997v158.4" style="stroke: rgb(255, 255, 255); stroke-opacity: 1; stroke-width: 1px;" transform="translate(101.76,0)"></path><path class="x2grid crisp" d="M0,161.59999999999997v158.4" style="stroke: rgb(255, 255, 255); stroke-opacity: 1; stroke-width: 1px;" transform="translate(209.36,0)"></path><path class="x2grid crisp" d="M0,161.59999999999997v158.4" style="stroke: rgb(255, 255, 255); stroke-opacity: 1; stroke-width: 1px;" transform="translate(316.97,0)"></path><path class="x2grid crisp" d="M0,161.59999999999997v158.4" style="stroke: rgb(255, 255, 255); stroke-opacity: 1; stroke-width: 1px;" transform="translate(424.57,0)"></path><path class="x2grid crisp" d="M0,161.59999999999997v158.4" style="stroke: rgb(255, 255, 255); stroke-opacity: 1; stroke-width: 1px;" transform="translate(532.1700000000001,0)"></path><path class="x2grid crisp" d="M0,161.59999999999997v158.4" style="stroke: rgb(255, 255, 255); stroke-opacity: 1; stroke-width: 1px;" transform="translate(639.78,0)"></path><path class="x2grid crisp" d="M0,161.59999999999997v158.4" style="stroke: rgb(255, 255, 255); stroke-opacity: 1; stroke-width: 1px;" transform="translate(747.38,0)"></path></g><g class="y2"><path class="y2grid crisp" d="M80,0h687" style="stroke: rgb(255, 255, 255); stroke-opacity: 1; stroke-width: 1px;" transform="translate(0,256.81999999999994)"></path><path class="y2grid crisp" d="M80,0h687" style="stroke: rgb(255, 255, 255); stroke-opacity: 1; stroke-width: 1px;" transform="translate(0,205.29999999999995)"></path></g></g><g class="zerolinelayer"><path class="y2zl zl crisp" d="M80,0h687" style="stroke: rgb(255, 255, 255); stroke-opacity: 1; stroke-width: 2px;" transform="translate(0,308.3299999999999)"></path></g><path class="xlines-below"></path><path class="ylines-below"></path><g class="overlines-below"></g><g class="xaxislayer-below"></g><g class="yaxislayer-below"></g><g class="overaxes-below"></g><g class="plot" clip-path="url(#clip5f3809x2y2plot)" transform="translate(80,161.59999999999997)"><g class="scatterlayer mlayer"><g class="trace scatter trace1c4867d2-64cf-4db6-8c22-fe956bb6dd7b" style="stroke-miterlimit: 2;"><g class="fills"><g><path class="js-fill" d="M773.09,146.73L-21.05,146.73L-21.05,111.25L11.88,89.77L16.83,87.01L27.81,81.72L42.05,76.78L52.31,74.61L59.98,73.69L71.47,73.23L76.19,73.32L92.39,74.47L107.55,76.48L124.81,79.85L128.19,80.66L147.66,86.47L151.12,87.69L189.64,101.48L196.75,103.08L205.84,104.17L222.05,102.9L241.89,95.65L245.72,93.65L288.03,69.07L290.62,67.92L291.28,67.64L302.46,63.87L303.08,63.71L319.29,61.99L335.03,64.31L335.5,64.43L348.16,68.55L350.48,69.44L384.12,82.13L388.85,83.26L402.89,84.74L402.89,84.74L415.6,83.21L422.6,81.14L432.74,76.61L448.95,66.11L453.5,62.58L497.57,25.7L501.3,23.15L505.8,20.39L513.77,16.37L521.52,13.73L524.52,13.07L529.98,12.41L532.93,12.35L541.26,13.32L542.43,13.59L550.25,16.19L555.55,18.72L562.4,22.78L564.58,24.25L568.19,26.84L578.6,35.27L598.94,53.95L603.28,58.01L627.22,79.12L634.99,85.2L651.7,96.82L656.43,99.76L675.84,110.44L687,115.72L708.26,124.46L724.47,130.1L756.88,138.8L773.09,141.77" style="fill: rgb(0, 0, 139); fill-opacity: 0.5; stroke-width: 0;"></path></g></g><g class="errorbars"></g><g class="lines"><path class="js-line" d="M-21.05,111.25L11.88,89.77L16.83,87.01L27.81,81.72L42.05,76.78L52.31,74.61L59.98,73.69L71.47,73.23L76.19,73.32L92.39,74.47L107.55,76.48L124.81,79.85L128.19,80.66L147.66,86.47L151.12,87.69L189.64,101.48L196.75,103.08L205.84,104.17L222.05,102.9L241.89,95.65L245.72,93.65L288.03,69.07L290.62,67.92L291.28,67.64L302.46,63.87L303.08,63.71L319.29,61.99L335.03,64.31L335.5,64.43L348.16,68.55L350.48,69.44L384.12,82.13L388.85,83.26L402.89,84.74L402.89,84.74L415.6,83.21L422.6,81.14L432.74,76.61L448.95,66.11L453.5,62.58L497.57,25.7L501.3,23.15L505.8,20.39L513.77,16.37L521.52,13.73L524.52,13.07L529.98,12.41L532.93,12.35L541.26,13.32L542.43,13.59L550.25,16.19L555.55,18.72L562.4,22.78L564.58,24.25L568.19,26.84L578.6,35.27L598.94,53.95L603.28,58.01L627.22,79.12L634.99,85.2L651.7,96.82L656.43,99.76L675.84,110.44L687,115.72L708.26,124.46L724.47,130.1L756.88,138.8L773.09,141.77" style="vector-effect: non-scaling-stroke; fill: none; stroke: rgb(0, 0, 139); stroke-opacity: 1; stroke-width: 2px; opacity: 1;"></path></g><g class="points"></g><g class="text"></g></g><g class="trace scatter trace1c220ee9-ea5b-4691-9107-524125721ada" style="stroke-miterlimit: 2; opacity: 1;"><g class="fills"></g><g class="errorbars"></g><g class="lines"><path class="js-line" d="M362.76,146.73L362.76,74.45" style="vector-effect: non-scaling-stroke; fill: none; stroke: rgb(0, 0, 139); stroke-opacity: 1; stroke-width: 2px; opacity: 1; stroke-dasharray: 9px, 9px;"></path></g><g class="points"><path class="point" d="M3,0A3,3 0 1,1 0,-3A3,3 0 0,1 3,0Z" style="opacity: 1; stroke-width: 0px; fill: rgb(0, 0, 139); fill-opacity: 1;" transform="translate(362.76,146.73)"></path><path class="point" d="M3,0A3,3 0 1,1 0,-3A3,3 0 0,1 3,0Z" style="opacity: 1; stroke-width: 0px; fill: rgb(0, 0, 139); fill-opacity: 1;" transform="translate(362.76,74.45)"></path></g><g class="text"></g></g><g class="trace scatter trace2201e8ed-e5ea-47c2-bb14-4bc39298347d" style="stroke-miterlimit: 2; opacity: 1;"><g class="fills"></g><g class="errorbars"></g><g class="lines"><path class="js-line" d="M379.96,146.73L379.96,80.91" style="vector-effect: non-scaling-stroke; fill: none; stroke: rgb(0, 0, 139); stroke-opacity: 1; stroke-width: 2px; opacity: 1;"></path></g><g class="points"></g><g class="text"></g></g><g class="trace scatter tracecde03611-ac55-45d7-85eb-1ca2be4bf6b1" style="stroke-miterlimit: 2;"><g class="fills"><g><path class="js-fill" d="M773.09,146.73L-21.05,146.73L-21.05,108.91L11.88,89.6L16.83,87.09L27.81,82.14L42.05,77.28L52.31,75.01L59.98,74L71.47,73.61L76.19,73.81L85.65,74.83L92.39,76L109.7,80.42L121.34,84.2L162.12,97.83L169.28,99.6L173.43,100.47L189.64,102.58L205.84,102.46L222.05,100.29L254.46,92.3L261.36,90.44L291.28,83.38L302.46,81.3L328.3,77.7L333.36,77.2L351.71,76.13L359.98,76.05L384.12,77.01L388.85,77.29L402.89,77.86L402.89,77.86L415.6,77.48L422.6,76.66L432.74,74.47L448.95,68.04L453.5,65.55L465.15,57.89L472.3,52.41L488.91,38.3L497.57,30.81L505.8,24.11L513.77,18.34L521.52,13.72L524.52,12.25L532.93,9.22L535.86,8.57L542.89,7.92L546.19,8.07L550.25,8.65L555.55,10.08L561.95,12.75L562.4,12.97L568.19,16.3L578.6,24L588.86,33.27L594.81,39.15L627.22,72.24L634.99,79.42L643.43,86.65L651.7,93.1L659.64,98.73L675.84,108.6L692.05,116.65L708.26,123.25L740.67,132.96L756.88,136.39L773.09,139.07" style="fill: rgb(105, 179, 162); fill-opacity: 0.5; stroke-width: 0;"></path></g></g><g class="errorbars"></g><g class="lines"><path class="js-line" d="M-21.05,108.91L11.88,89.6L16.83,87.09L27.81,82.14L42.05,77.28L52.31,75.01L59.98,74L71.47,73.61L76.19,73.81L85.65,74.83L92.39,76L109.7,80.42L121.34,84.2L162.12,97.83L169.28,99.6L173.43,100.47L189.64,102.58L205.84,102.46L222.05,100.29L254.46,92.3L261.36,90.44L291.28,83.38L302.46,81.3L328.3,77.7L333.36,77.2L351.71,76.13L359.98,76.05L384.12,77.01L388.85,77.29L402.89,77.86L402.89,77.86L415.6,77.48L422.6,76.66L432.74,74.47L448.95,68.04L453.5,65.55L465.15,57.89L472.3,52.41L488.91,38.3L497.57,30.81L505.8,24.11L513.77,18.34L521.52,13.72L524.52,12.25L532.93,9.22L535.86,8.57L542.89,7.92L546.19,8.07L550.25,8.65L555.55,10.08L561.95,12.75L562.4,12.97L568.19,16.3L578.6,24L588.86,33.27L594.81,39.15L627.22,72.24L634.99,79.42L643.43,86.65L651.7,93.1L659.64,98.73L675.84,108.6L692.05,116.65L708.26,123.25L740.67,132.96L756.88,136.39L773.09,139.07" style="vector-effect: non-scaling-stroke; fill: none; stroke: rgb(105, 179, 162); stroke-opacity: 1; stroke-width: 2px; opacity: 1;"></path></g><g class="points"></g><g class="text"></g></g><g class="trace scatter trace96b39b7b-d960-4407-ae62-db146f0fcb75" style="stroke-miterlimit: 2; opacity: 1;"><g class="fills"></g><g class="errorbars"></g><g class="lines"><path class="js-line" d="M370.17,146.73L370.17,76.28" style="vector-effect: non-scaling-stroke; fill: none; stroke: rgb(105, 179, 162); stroke-opacity: 1; stroke-width: 2px; opacity: 1; stroke-dasharray: 9px, 9px;"></path></g><g class="points"><path class="point" d="M3,0A3,3 0 1,1 0,-3A3,3 0 0,1 3,0Z" style="opacity: 1; stroke-width: 0px; fill: rgb(105, 179, 162); fill-opacity: 1;" transform="translate(370.17,146.73)"></path><path class="point" d="M3,0A3,3 0 1,1 0,-3A3,3 0 0,1 3,0Z" style="opacity: 1; stroke-width: 0px; fill: rgb(105, 179, 162); fill-opacity: 1;" transform="translate(370.17,76.28)"></path></g><g class="text"></g></g><g class="trace scatter trace4056bd0d-b39b-4007-8f00-1b6ef73231b2" style="stroke-miterlimit: 2; opacity: 1;"><g class="fills"></g><g class="errorbars"></g><g class="lines"><path class="js-line" d="M402.89,146.73L402.89,77.86" style="vector-effect: non-scaling-stroke; fill: none; stroke: rgb(105, 179, 162); stroke-opacity: 1; stroke-width: 2px; opacity: 1;"></path></g><g class="points"></g><g class="text"></g></g></g></g><g class="overplot"></g><path class="xlines-above crisp" d="M0,0" style="fill: none;"></path><path class="ylines-above crisp" d="M0,0" style="fill: none;"></path><g class="overlines-above"></g><g class="xaxislayer-above"><g class="x2tick"><text data-math="N" data-unformatted="0.05" style='font-family: "Open Sans", verdana, arial, sans-serif; font-size: 12px; fill: rgb(42, 63, 95); fill-opacity: 1; white-space: pre; opacity: 1;' text-anchor="middle" transform="translate(101.76,0)" x="0" y="333">0.05</text></g><g class="x2tick"><text data-math="N" data-unformatted="0.1" style='font-family: "Open Sans", verdana, arial, sans-serif; font-size: 12px; fill: rgb(42, 63, 95); fill-opacity: 1; white-space: pre; opacity: 1;' text-anchor="middle" transform="translate(209.36,0)" x="0" y="333">0.1</text></g><g class="x2tick"><text data-math="N" data-unformatted="0.15" style='font-family: "Open Sans", verdana, arial, sans-serif; font-size: 12px; fill: rgb(42, 63, 95); fill-opacity: 1; white-space: pre; opacity: 1;' text-anchor="middle" transform="translate(316.97,0)" x="0" y="333">0.15</text></g><g class="x2tick"><text data-math="N" data-unformatted="0.2" style='font-family: "Open Sans", verdana, arial, sans-serif; font-size: 12px; fill: rgb(42, 63, 95); fill-opacity: 1; white-space: pre; opacity: 1;' text-anchor="middle" transform="translate(424.57,0)" x="0" y="333">0.2</text></g><g class="x2tick"><text data-math="N" data-unformatted="0.25" style='font-family: "Open Sans", verdana, arial, sans-serif; font-size: 12px; fill: rgb(42, 63, 95); fill-opacity: 1; white-space: pre; opacity: 1;' text-anchor="middle" transform="translate(532.1700000000001,0)" x="0" y="333">0.25</text></g><g class="x2tick"><text data-math="N" data-unformatted="0.3" style='font-family: "Open Sans", verdana, arial, sans-serif; font-size: 12px; fill: rgb(42, 63, 95); fill-opacity: 1; white-space: pre; opacity: 1;' text-anchor="middle" transform="translate(639.78,0)" x="0" y="333">0.3</text></g><g class="x2tick"><text data-math="N" data-unformatted="0.35" style='font-family: "Open Sans", verdana, arial, sans-serif; font-size: 12px; fill: rgb(42, 63, 95); fill-opacity: 1; white-space: pre; opacity: 1;' text-anchor="middle" transform="translate(747.38,0)" x="0" y="333">0.35</text></g></g><g class="yaxislayer-above"><g class="y2tick"><text data-math="N" data-unformatted="0" style='font-family: "Open Sans", verdana, arial, sans-serif; font-size: 12px; fill: rgb(42, 63, 95); fill-opacity: 1; white-space: pre; opacity: 1;' text-anchor="end" transform="translate(0,308.3299999999999)" x="79" y="4.199999999999999">0</text></g><g class="y2tick"><text data-math="N" data-unformatted="2" style='font-family: "Open Sans", verdana, arial, sans-serif; font-size: 12px; fill: rgb(42, 63, 95); fill-opacity: 1; white-space: pre; opacity: 1;' text-anchor="end" transform="translate(0,256.81999999999994)" x="79" y="4.199999999999999">2</text></g><g class="y2tick"><text data-math="N" data-unformatted="4" style='font-family: "Open Sans", verdana, arial, sans-serif; font-size: 12px; fill: rgb(42, 63, 95); fill-opacity: 1; white-space: pre; opacity: 1;' text-anchor="end" transform="translate(0,205.29999999999995)" x="79" y="4.199999999999999">4</text></g></g><g class="overaxes-above"></g></g></g><g class="polarlayer"></g><g class="smithlayer"></g><g class="ternarylayer"></g><g class="geolayer"></g><g class="funnelarealayer"></g><g class="pielayer"></g><g class="iciclelayer"></g><g class="treemaplayer"></g><g class="sunburstlayer"></g><g class="glimages"></g>
</g>
<g transform="translate(0.0, 0.0)">
<defs id="topdefs-5f3809"><g class="clips"></g><clippath id="legend5f3809"><rect height="143" width="127" x="0" y="0"></rect></clippath></defs><g class="indicatorlayer"></g><g class="layer-above"><g class="imagelayer"></g><g class="shapelayer"></g></g><g class="infolayer"><g class="legend" pointer-events="all" transform="translate(780.74,188)"><rect class="bg" height="143" shape-rendering="crispEdges" style="stroke: rgb(68, 68, 68); stroke-opacity: 1; fill: rgb(255, 255, 255); fill-opacity: 1; stroke-width: 0px;" width="127" x="0" y="0"></rect><g class="scrollbox" clip-path="url(#legend5f3809)" transform=""><text class="legendtitletext" data-math="N" data-unformatted="Legend" style='font-family: "Open Sans", verdana, arial, sans-serif; font-size: 14px; fill: rgb(42, 63, 95); fill-opacity: 1; white-space: pre;' text-anchor="start" x="2" y="18.2">Legend</text><g class="groups"><g class="traces" style="opacity: 1;" transform="translate(0,32.7)"><text class="legendtext" data-math="N" data-unformatted="Train Dataset" style='font-family: "Open Sans", verdana, arial, sans-serif; font-size: 12px; fill: rgb(42, 63, 95); fill-opacity: 1; white-space: pre;' text-anchor="start" x="40" y="4.680000000000001">Train Dataset</text><g class="layers"><g class="legendfill"><path class="js-fill" d="M5,-2h30v6h-30z" style="stroke-width: 0; fill: rgb(0, 0, 139); fill-opacity: 0.5;"></path></g><g class="legendlines"><path class="js-line" d="M5,-2h30" style="fill: none; stroke: rgb(0, 0, 139); stroke-opacity: 1; stroke-width: 2px;"></path></g><g class="legendsymbols"><g class="legendpoints"></g></g></g><rect class="legendtoggle" height="19" pointer-events="all" style="cursor: pointer; fill: rgb(0, 0, 0); fill-opacity: 0;" width="121.234375" x="0" y="-9.5"></rect></g><g class="traces" style="opacity: 1;" transform="translate(0,51.7)"><text class="legendtext" data-math="N" data-unformatted="Train Mean" style='font-family: "Open Sans", verdana, arial, sans-serif; font-size: 12px; fill: rgb(42, 63, 95); fill-opacity: 1; white-space: pre;' text-anchor="start" x="40" y="4.680000000000001">Train Mean</text><g class="layers" style="opacity: 1;"><g class="legendfill"></g><g class="legendlines"><path class="js-line" d="M5,0h30" style="fill: none; stroke: rgb(0, 0, 139); stroke-opacity: 1; stroke-dasharray: 9px, 9px; stroke-width: 2px;"></path></g><g class="legendsymbols"><g class="legendpoints"><path class="scatterpts" d="M3,0A3,3 0 1,1 0,-3A3,3 0 0,1 3,0Z" style="opacity: 1; stroke-width: 0px; fill: rgb(0, 0, 139); fill-opacity: 1;" transform="translate(20,0)"></path></g></g></g><rect class="legendtoggle" height="19" pointer-events="all" style="cursor: pointer; fill: rgb(0, 0, 0); fill-opacity: 0;" width="121.234375" x="0" y="-9.5"></rect></g><g class="traces" style="opacity: 1;" transform="translate(0,70.7)"><text class="legendtext" data-math="N" data-unformatted="Train Median" style='font-family: "Open Sans", verdana, arial, sans-serif; font-size: 12px; fill: rgb(42, 63, 95); fill-opacity: 1; white-space: pre;' text-anchor="start" x="40" y="4.680000000000001">Train Median</text><g class="layers" style="opacity: 1;"><g class="legendfill"></g><g class="legendlines"><path class="js-line" d="M5,0h30" style="fill: none; stroke: rgb(0, 0, 139); stroke-opacity: 1; stroke-width: 2px;"></path></g><g class="legendsymbols"><g class="legendpoints"></g></g></g><rect class="legendtoggle" height="19" pointer-events="all" style="cursor: pointer; fill: rgb(0, 0, 0); fill-opacity: 0;" width="121.234375" x="0" y="-9.5"></rect></g><g class="traces" style="opacity: 1;" transform="translate(0,89.7)"><text class="legendtext" data-math="N" data-unformatted="Test Dataset" style='font-family: "Open Sans", verdana, arial, sans-serif; font-size: 12px; fill: rgb(42, 63, 95); fill-opacity: 1; white-space: pre;' text-anchor="start" x="40" y="4.680000000000001">Test Dataset</text><g class="layers"><g class="legendfill"><path class="js-fill" d="M5,-2h30v6h-30z" style="stroke-width: 0; fill: rgb(105, 179, 162); fill-opacity: 0.5;"></path></g><g class="legendlines"><path class="js-line" d="M5,-2h30" style="fill: none; stroke: rgb(105, 179, 162); stroke-opacity: 1; stroke-width: 2px;"></path></g><g class="legendsymbols"><g class="legendpoints"></g></g></g><rect class="legendtoggle" height="19" pointer-events="all" style="cursor: pointer; fill: rgb(0, 0, 0); fill-opacity: 0;" width="121.234375" x="0" y="-9.5"></rect></g><g class="traces" style="opacity: 1;" transform="translate(0,108.7)"><text class="legendtext" data-math="N" data-unformatted="Test Mean" style='font-family: "Open Sans", verdana, arial, sans-serif; font-size: 12px; fill: rgb(42, 63, 95); fill-opacity: 1; white-space: pre;' text-anchor="start" x="40" y="4.680000000000001">Test Mean</text><g class="layers" style="opacity: 1;"><g class="legendfill"></g><g class="legendlines"><path class="js-line" d="M5,0h30" style="fill: none; stroke: rgb(105, 179, 162); stroke-opacity: 1; stroke-dasharray: 9px, 9px; stroke-width: 2px;"></path></g><g class="legendsymbols"><g class="legendpoints"><path class="scatterpts" d="M3,0A3,3 0 1,1 0,-3A3,3 0 0,1 3,0Z" style="opacity: 1; stroke-width: 0px; fill: rgb(105, 179, 162); fill-opacity: 1;" transform="translate(20,0)"></path></g></g></g><rect class="legendtoggle" height="19" pointer-events="all" style="cursor: pointer; fill: rgb(0, 0, 0); fill-opacity: 0;" width="121.234375" x="0" y="-9.5"></rect></g><g class="traces" style="opacity: 1;" transform="translate(0,127.7)"><text class="legendtext" data-math="N" data-unformatted="Test Median" style='font-family: "Open Sans", verdana, arial, sans-serif; font-size: 12px; fill: rgb(42, 63, 95); fill-opacity: 1; white-space: pre;' text-anchor="start" x="40" y="4.680000000000001">Test Median</text><g class="layers" style="opacity: 1;"><g class="legendfill"></g><g class="legendlines"><path class="js-line" d="M5,0h30" style="fill: none; stroke: rgb(105, 179, 162); stroke-opacity: 1; stroke-width: 2px;"></path></g><g class="legendsymbols"><g class="legendpoints"></g></g></g><rect class="legendtoggle" height="19" pointer-events="all" style="cursor: pointer; fill: rgb(0, 0, 0); fill-opacity: 0;" width="121.234375" x="0" y="-9.5"></rect></g></g></g><rect class="scrollbar" height="0" rx="20" ry="3" style="fill: rgb(128, 139, 164); fill-opacity: 1;" width="0" x="0" y="0"></rect></g><g class="g-gtitle"><text class="gtitle" data-math="N" data-unformatted="Mean Blue Relative Intensity" dy="0em" style='font-family: "Open Sans", verdana, arial, sans-serif; font-size: 17px; fill: rgb(42, 63, 95); opacity: 1; font-weight: normal; white-space: pre;' text-anchor="middle" x="460" y="50">Mean Blue Relative Intensity</text></g><g class="g-xtitle"></g><g class="g-x2title"><text class="x2title" data-math="N" data-unformatted="Mean Blue Relative Intensity" style='font-family: "Open Sans", verdana, arial, sans-serif; font-size: 14px; fill: rgb(42, 63, 95); opacity: 1; font-weight: normal; white-space: pre;' text-anchor="middle" x="423.5" y="360.8">Mean Blue Relative Intensity</text></g><g class="g-ytitle"></g><g class="g-y2title"><text class="y2title" data-math="N" data-unformatted="Probability Density" style='font-family: "Open Sans", verdana, arial, sans-serif; font-size: 14px; fill: rgb(42, 63, 95); opacity: 1; font-weight: normal; white-space: pre;' text-anchor="middle" transform="rotate(-90,46.559375,240.79999999999995)" x="46.559375" y="240.79999999999995">Probability Density</text></g><g class="annotation" data-index="0" style="opacity: 1;"><g class="annotation-text-g" transform="rotate(0,423.5,88.49999999999999)"><g class="cursor-pointer" transform="translate(284,77)"><rect class="bg" height="22" style="stroke-width: 1px; stroke: rgb(0, 0, 0); stroke-opacity: 0; fill: rgb(0, 0, 0); fill-opacity: 0;" width="279" x="0.5" y="0.5"></rect><text class="annotation-text" data-math="N" data-unformatted="Drift Score (Kolmogorov-Smirnov)" style='font-family: "Open Sans", verdana, arial, sans-serif; font-size: 16px; fill: rgb(42, 63, 95); fill-opacity: 1; white-space: pre;' text-anchor="middle" x="139.8984375" y="18">Drift Score (Kolmogorov-Smirnov)</text></g></g></g><g class="annotation" data-index="1" style="opacity: 1;"><g class="annotation-text-g" transform="rotate(0,423.5,150.09999999999997)"><g class="cursor-pointer" transform="translate(357,139)"><rect class="bg" height="22" style="stroke-width: 1px; stroke: rgb(0, 0, 0); stroke-opacity: 0; fill: rgb(0, 0, 0); fill-opacity: 0;" width="133" x="0.5" y="0.5"></rect><text class="annotation-text" data-math="N" data-unformatted="Distribution Plot" style='font-family: "Open Sans", verdana, arial, sans-serif; font-size: 16px; fill: rgb(42, 63, 95); fill-opacity: 1; white-space: pre;' text-anchor="middle" x="66.4453125" y="18">Distribution Plot</text></g></g></g></g><g class="menulayer"></g><g class="zoomlayer"></g>
</g>
<g transform="translate(0.0, 0.0)">
<g class="hoverlayer"></g>
</g>
</svg>