<svg xmlns="http://www.w3.org/2000/svg" viewBox="0 0 920.0 400.0" style="overflow: hidden;">
<g transform="translate(0.0, 0.0)">
<defs id="defs-66f05e"><g class="clips"><clippath class="plotclip" id="clip66f05exyplot"><rect height="17.599999999999966" width="687"></rect></clippath><clippath class="plotclip" id="clip66f05ex2y2plot"><rect height="158.4" width="687"></rect></clippath><clippath class="axesclip" id="clip66f05ex"><rect height="400" width="687" x="80" y="0"></rect></clippath><clippath class="axesclip" id="clip66f05ey"><rect height="17.599999999999966" width="920" x="0" y="100"></rect></clippath><clippath class="axesclip" id="clip66f05exy"><rect height="17.599999999999966" width="687" x="80" y="100"></rect></clippath><clippath class="axesclip" id="clip66f05ey2"><rect height="158.4" width="920" x="0" y="161.59999999999997"></rect></clippath><clippath class="axesclip" id="clip66f05exy2"><rect height="158.4" width="687" x="80" y="161.59999999999997"></rect></clippath><clippath class="axesclip" id="clip66f05ex2"><rect height="400" width="687" x="80" y="0"></rect></clippath><clippath class="axesclip" id="clip66f05ex2y"><rect height="17.599999999999966" width="687" x="80" y="100"></rect></clippath><clippath class="axesclip" id="clip66f05ex2y2"><rect height="158.4" width="687" x="80" y="161.59999999999997"></rect></clippath></g><g class="gradients"></g><g class="patterns"></g></defs><g class="bglayer"><rect class="bg" height="17.599999999999966" style="fill: rgb(229, 236, 246); fill-opacity: 1; stroke-width: 0;" width="687" x="80" y="100"></rect><rect class="bg" height="158.4" style="fill: rgb(229, 236, 246); fill-opacity: 1; stroke-width: 0;" width="687" x="80" y="161.59999999999997"></rect></g><g class="draglayer cursor-crosshair"><g class="xy"><rect class="nsewdrag drag cursor-pointer" data-subplot="xy" height="17.599999999999966" style="fill: transparent; stroke-width: 0; pointer-events: all;" width="687" x="80" y="100"></rect><rect class="nwdrag drag cursor-pointer" data-subplot="xy" height="20" style="fill: transparent; stroke-width: 0; pointer-events: none;" width="20" x="60" y="80"></rect><rect class="nedrag drag cursor-pointer" data-subplot="xy" height="20" style="fill: transparent; stroke-width: 0; pointer-events: none;" width="20" x="767" y="80"></rect><rect class="swdrag drag cursor-pointer" data-subplot="xy" height="20" style="fill: transparent; stroke-width: 0; pointer-events: none;" width="20" x="60" y="117.59999999999997"></rect><rect class="sedrag drag cursor-pointer" data-subplot="xy" height="20" style="fill: transparent; stroke-width: 0; pointer-events: none;" width="20" x="767" y="117.59999999999997"></rect><rect class="ewdrag drag cursor-pointer" data-subplot="xy" height="20" style="fill: transparent; stroke-width: 0; pointer-events: none;" width="549.6" x="148.7" y="118.09999999999997"></rect><rect class="wdrag drag cursor-pointer" data-subplot="xy" height="20" style="fill: transparent; stroke-width: 0; pointer-events: none;" width="68.7" x="80" y="118.09999999999997"></rect><rect class="edrag drag cursor-pointer" data-subplot="xy" height="20" style="fill: transparent; stroke-width: 0; pointer-events: none;" width="68.7" x="698.3000000000001" y="118.09999999999997"></rect><rect class="nsdrag drag cursor-pointer" data-subplot="xy" height="14.079999999999973" style="fill: transparent; stroke-width: 0; pointer-events: none;" width="20" x="59.5" y="101.75999999999999"></rect><rect class="sdrag drag cursor-pointer" data-subplot="xy" height="1.7599999999999967" style="fill: transparent; stroke-width: 0; pointer-events: none;" width="20" x="59.5" y="115.83999999999997"></rect><rect class="ndrag drag cursor-pointer" data-subplot="xy" height="1.7599999999999967" style="fill: transparent; stroke-width: 0; pointer-events: none;" width="20" x="59.5" y="100"></rect></g><g class="x2y2"><rect class="nsewdrag drag cursor-ew-resize" data-subplot="x2y2" height="158.4" style="fill: transparent; stroke-width: 0; pointer-events: all;" width="687" x="80" y="161.59999999999997"></rect><rect class="nwdrag drag cursor-w-resize" data-subplot="x2y2" height="20" style="fill: transparent; stroke-width: 0; pointer-events: all;" width="20" x="60" y="141.59999999999997"></rect><rect class="nedrag drag cursor-e-resize" data-subplot="x2y2" height="20" style="fill: transparent; stroke-width: 0; pointer-events: all;" width="20" x="767" y="141.59999999999997"></rect><rect class="swdrag drag cursor-w-resize" data-subplot="x2y2" height="20" style="fill: transparent; stroke-width: 0; pointer-events: all;" width="20" x="60" y="320"></rect><rect class="sedrag drag cursor-e-resize" data-subplot="x2y2" height="20" style="fill: transparent; stroke-width: 0; pointer-events: all;" width="20" x="767" y="320"></rect><rect class="ewdrag drag cursor-ew-resize" data-subplot="x2y2" height="20" style="fill: transparent; stroke-width: 0; pointer-events: all;" width="549.6" x="148.7" y="320.5"></rect><rect class="wdrag drag cursor-w-resize" data-subplot="x2y2" height="20" style="fill: transparent; stroke-width: 0; pointer-events: all;" width="68.7" x="80" y="320.5"></rect><rect class="edrag drag cursor-e-resize" data-subplot="x2y2" height="20" style="fill: transparent; stroke-width: 0; pointer-events: all;" width="68.7" x="698.3000000000001" y="320.5"></rect><rect class="nsdrag drag cursor-pointer" data-subplot="x2y2" height="126.72000000000001" style="fill: transparent; stroke-width: 0; pointer-events: none;" width="20" x="59.5" y="177.43999999999997"></rect><rect class="sdrag drag cursor-pointer" data-subplot="x2y2" height="15.840000000000002" style="fill: transparent; stroke-width: 0; pointer-events: none;" width="20" x="59.5" y="304.15999999999997"></rect><rect class="ndrag drag cursor-pointer" data-subplot="x2y2" height="15.840000000000002" style="fill: transparent; stroke-width: 0; pointer-events: none;" width="20" x="59.5" y="161.59999999999997"></rect></g></g><g class="layer-below"><g class="imagelayer"></g><g class="shapelayer"></g></g><g class="cartesianlayer"><g class="subplot xy"><g class="layer-subplot"><g class="shapelayer"></g><g class="imagelayer"></g></g><g class="minor-gridlayer"><g class="x"></g><g class="y"></g></g><g class="gridlayer"><g class="x"></g><g class="y"></g></g><g class="zerolinelayer"><path class="xzl zl crisp" d="M0,100v17.599999999999966" style="stroke: rgb(255, 255, 255); stroke-opacity: 1; stroke-width: 2px;" transform="translate(80,0)"></path></g><path class="xlines-below"></path><path class="ylines-below"></path><g class="overlines-below"></g><g class="xaxislayer-below"></g><g class="yaxislayer-below"></g><g class="overaxes-below"></g><g class="plot" clip-path="url(#clip66f05exyplot)" transform="translate(80,100)"><g class="barlayer mlayer"><g class="trace bars" style="opacity: 1;"><g class="points"><g class="point"><path d="M0,15.84V1.76H95.42V15.84Z" style="vector-effect: non-scaling-stroke; opacity: 1; stroke-width: 0.5px; fill: rgb(1, 184, 170); fill-opacity: 1; stroke: rgb(229, 236, 246); stroke-opacity: 1;"></path></g></g></g></g></g><g class="overplot"></g><path class="xlines-above crisp" d="M80,118.09999999999997H767" style="fill: none; stroke-width: 1px; stroke: rgb(0, 0, 0); stroke-opacity: 1;"></path><path class="ylines-above crisp" d="M0,0" style="fill: none;"></path><g class="overlines-above"></g><g class="xaxislayer-above"><g class="xtick"><text data-math="N" data-unformatted="0" style='font-family: "Open Sans", verdana, arial, sans-serif; font-size: 12px; fill: rgb(42, 63, 95); fill-opacity: 1; white-space: pre; opacity: 1;' text-anchor="middle" transform="translate(80,0)" x="0" y="132.99999999999997">0</text></g><g class="xtick"><text data-math="N" data-unformatted="0.05" style='font-family: "Open Sans", verdana, arial, sans-serif; font-size: 12px; fill: rgb(42, 63, 95); fill-opacity: 1; white-space: pre; opacity: 1;' text-anchor="middle" transform="translate(165.88,0)" x="0" y="132.99999999999997">0.05</text></g><g class="xtick"><text data-math="N" data-unformatted="0.1" style='font-family: "Open Sans", verdana, arial, sans-serif; font-size: 12px; fill: rgb(42, 63, 95); fill-opacity: 1; white-space: pre; opacity: 1;' text-anchor="middle" transform="translate(251.75,0)" x="0" y="132.99999999999997">0.1</text></g><g class="xtick"><text data-math="N" data-unformatted="0.15" style='font-family: "Open Sans", verdana, arial, sans-serif; font-size: 12px; fill: rgb(42, 63, 95); fill-opacity: 1; white-space: pre; opacity: 1;' text-anchor="middle" transform="translate(337.63,0)" x="0" y="132.99999999999997">0.15</text></g><g class="xtick"><text data-math="N" data-unformatted="0.2" style='font-family: "Open Sans", verdana, arial, sans-serif; font-size: 12px; fill: rgb(42, 63, 95); fill-opacity: 1; white-space: pre; opacity: 1;' text-anchor="middle" transform="translate(423.5,0)" x="0" y="132.99999999999997">0.2</text></g><g class="xtick"><text data-math="N" data-unformatted="0.25" style='font-family: "Open Sans", verdana, arial, sans-serif; font-size: 12px; fill: rgb(42, 63, 95); fill-opacity: 1; white-space: pre; opacity: 1;' text-anchor="middle" transform="translate(509.38,0)" x="0" y="132.99999999999997">0.25</text></g><g class="xtick"><text data-math="N" data-unformatted="0.3" style='font-family: "Open Sans", verdana, arial, sans-serif; font-size: 12px; fill: rgb(42, 63, 95); fill-opacity: 1; white-space: pre; opacity: 1;' text-anchor="middle" transform="translate(595.25,0)" x="0" y="132.99999999999997">0.3</text></g><g class="xtick"><text data-math="N" data-unformatted="0.35" style='font-family: "Open Sans", verdana, arial, sans-serif; font-size: 12px; fill: rgb(42, 63, 95); fill-opacity: 1; white-space: pre; opacity: 1;' text-anchor="middle" transform="translate(681.13,0)" x="0" y="132.99999999999997">0.35</text></g><g class="xtick"><text data-math="N" data-unformatted="0.4" style='font-family: "Open Sans", verdana, arial, sans-serif; font-size: 12px; fill: rgb(42, 63, 95); fill-opacity: 1; white-space: pre; opacity: 1;' text-anchor="middle" transform="translate(767,0)" x="0" y="132.99999999999997">0.4</text></g></g><g class="yaxislayer-above"></g><g class="overaxes-above"></g></g><g class="subplot x2y2"><g class="layer-subplot"><g class="shapelayer"></g><g class="imagelayer"></g></g><g class="minor-gridlayer"><g class="x2"></g><g class="y2"></g></g><g class="gridlayer"><g class="x2"><path class="x2grid crisp" d="M0,161.59999999999997v158.4" style="stroke: rgb(255, 255, 255); stroke-opacity: 1; stroke-width: 1px;" transform="translate(129.21,0)"></path><path class="x2grid crisp" d="M0,161.59999999999997v158.4" style="stroke: rgb(255, 255, 255); stroke-opacity: 1; stroke-width: 1px;" transform="translate(252.17,0)"></path><path class="x2grid crisp" d="M0,161.59999999999997v158.4" style="stroke: rgb(255, 255, 255); stroke-opacity: 1; stroke-width: 1px;" transform="translate(375.14,0)"></path><path class="x2grid crisp" d="M0,161.59999999999997v158.4" style="stroke: rgb(255, 255, 255); stroke-opacity: 1; stroke-width: 1px;" transform="translate(498.11,0)"></path><path class="x2grid crisp" d="M0,161.59999999999997v158.4" style="stroke: rgb(255, 255, 255); stroke-opacity: 1; stroke-width: 1px;" transform="translate(621.07,0)"></path><path class="x2grid crisp" d="M0,161.59999999999997v158.4" style="stroke: rgb(255, 255, 255); stroke-opacity: 1; stroke-width: 1px;" transform="translate(744.04,0)"></path></g><g class="y2"><path class="y2grid crisp" d="M80,0h687" style="stroke: rgb(255, 255, 255); stroke-opacity: 1; stroke-width: 1px;" transform="translate(0,260.25)"></path><path class="y2grid crisp" d="M80,0h687" style="stroke: rgb(255, 255, 255); stroke-opacity: 1; stroke-width: 1px;" transform="translate(0,212.15999999999997)"></path><path class="y2grid crisp" d="M80,0h687" style="stroke: rgb(255, 255, 255); stroke-opacity: 1; stroke-width: 1px;" transform="translate(0,164.07999999999996)"></path></g></g><g class="zerolinelayer"><path class="y2zl zl crisp" d="M80,0h687" style="stroke: rgb(255, 255, 255); stroke-opacity: 1; stroke-width: 2px;" transform="translate(0,308.3299999999999)"></path></g><path class="xlines-below"></path><path class="ylines-below"></path><g class="overlines-below"></g><g class="xaxislayer-below"></g><g class="yaxislayer-below"></g><g class="overaxes-below"></g><g class="plot" clip-path="url(#clip66f05ex2y2plot)" transform="translate(80,161.59999999999997)"><g class="scatterlayer mlayer"><g class="trace scatter trace991e7722-b987-40f5-8c39-f1fd079b37f3" style="stroke-miterlimit: 2;"><g class="fills"><g><path class="js-fill" d="M718.95,146.73L-57.22,146.73L-57.22,136.37L-41.38,130.4L-25.54,122.66L6.14,103.42L17.96,96L28.2,89.99L37.82,84.96L53.66,78.5L62.59,76.05L71.64,74.49L80.61,73.86L87.37,73.94L101.18,75.43L119.28,79.34L131.6,82.68L164.55,91.11L174.73,92.86L184.48,93.89L195.35,94.14L196.23,94.12L212.07,92.43L223.41,89.7L227.91,88.27L249.35,79.05L257.8,74.59L291.98,55.8L303,50.84L316.62,46.37L320.83,45.43L323.24,44.99L332.51,44.05L342.2,44.35L344.38,44.61L354.63,46.7L361.6,48.95L370.47,52.7L377.52,56.36L396.52,68.5L399.56,70.67L438.89,99.01L449.67,105.08L454.93,107.51L465.51,111.07L481.35,112.58L497.19,109.02L513.03,100.38L528.87,87.3L544.71,71.04L559.51,54.53L580.21,32.52L582.7,30.15L594.43,20.26L596.11,19.04L603.29,14.47L608.07,12.05L613.88,9.83L623.91,7.98L629.82,8.1L633.54,8.65L641.11,10.87L647.61,13.93L655.91,19.27L661.23,23.48L671.43,33.01L673.36,35L687.27,50.62L703.11,69.83L718.95,88.62" style="fill: rgb(0, 0, 139); fill-opacity: 0.5; stroke-width: 0;"></path></g></g><g class="errorbars"></g><g class="lines"><path class="js-line" d="M-57.22,136.37L-41.38,130.4L-25.54,122.66L6.14,103.42L17.96,96L28.2,89.99L37.82,84.96L53.66,78.5L62.59,76.05L71.64,74.49L80.61,73.86L87.37,73.94L101.18,75.43L119.28,79.34L131.6,82.68L164.55,91.11L174.73,92.86L184.48,93.89L195.35,94.14L196.23,94.12L212.07,92.43L223.41,89.7L227.91,88.27L249.35,79.05L257.8,74.59L291.98,55.8L303,50.84L316.62,46.37L320.83,45.43L323.24,44.99L332.51,44.05L342.2,44.35L344.38,44.61L354.63,46.7L361.6,48.95L370.47,52.7L377.52,56.36L396.52,68.5L399.56,70.67L438.89,99.01L449.67,105.08L454.93,107.51L465.51,111.07L481.35,112.58L497.19,109.02L513.03,100.38L528.87,87.3L544.71,71.04L559.51,54.53L580.21,32.52L582.7,30.15L594.43,20.26L596.11,19.04L603.29,14.47L608.07,12.05L613.88,9.83L623.91,7.98L629.82,8.1L633.54,8.65L641.11,10.87L647.61,13.93L655.91,19.27L661.23,23.48L671.43,33.01L673.36,35L687.27,50.62L703.11,69.83L718.95,88.62" style="vector-effect: non-scaling-stroke; fill: none; stroke: rgb(0, 0, 139); stroke-opacity: 1; stroke-width: 2px; opacity: 1;"></path></g><g class="points"></g><g class="text"></g></g><g class="trace scatter traced99f4d79-115d-449e-a053-0faa5cc0b4f3" style="stroke-miterlimit: 2; opacity: 1;"><g class="fills"></g><g class="errorbars"></g><g class="lines"><path class="js-line" d="M396.52,146.73L396.52,68.5" style="vector-effect: non-scaling-stroke; fill: none; stroke: rgb(0, 0, 139); stroke-opacity: 1; stroke-width: 2px; opacity: 1; stroke-dasharray: 9px, 9px;"></path></g><g class="points"><path class="point" d="M3,0A3,3 0 1,1 0,-3A3,3 0 0,1 3,0Z" style="opacity: 1; stroke-width: 0px; fill: rgb(0, 0, 139); fill-opacity: 1;" transform="translate(396.52,146.73)"></path><path class="point" d="M3,0A3,3 0 1,1 0,-3A3,3 0 0,1 3,0Z" style="opacity: 1; stroke-width: 0px; fill: rgb(0, 0, 139); fill-opacity: 1;" transform="translate(396.52,68.5)"></path></g><g class="text"></g></g><g class="trace scatter traceca1e20a8-7feb-4b52-a274-9733b18d6e00" style="stroke-miterlimit: 2; opacity: 1;"><g class="fills"></g><g class="errorbars"></g><g class="lines"><path class="js-line" d="M377.52,146.73L377.52,56.36" style="vector-effect: non-scaling-stroke; fill: none; stroke: rgb(0, 0, 139); stroke-opacity: 1; stroke-width: 2px; opacity: 1;"></path></g><g class="points"></g><g class="text"></g></g><g class="trace scatter tracec391c19b-9192-4bba-84f4-725f4a48990a" style="stroke-miterlimit: 2;"><g class="fills"><g><path class="js-fill" d="M718.95,146.73L-57.22,146.73L-57.22,127.49L-9.7,110.44L0,107.08L21.98,100.74L25.74,99.89L37.82,97.7L43.79,96.93L62.59,95.65L69.5,95.53L119.28,94.78L131.6,93.55L148.71,90.84L157.45,89.05L184.48,82.1L195.35,78.78L214.57,72.23L223.41,68.98L268.09,52.82L270.49,52.12L285.14,48.58L289.58,47.81L303,46.45L307.11,46.35L320.83,47.1L322.95,47.37L332.87,49.12L334.34,49.46L347.52,53.19L352.88,55.07L362.85,59.06L370.47,62.49L394.08,74.69L396.52,76.04L438.89,99.33L449.67,104.12L454.93,106.1L465.51,109.1L481.35,110.56L497.19,107.54L513.03,99.58L528.87,86.99L544.71,70.96L559.51,54.55L576.53,36.46L580.21,32.91L592.23,22.79L593.48,21.89L599,18.27L603.29,15.92L613.88,11.93L623.91,10.7L629.82,11.16L633.54,11.9L641.11,14.43L647.61,17.68L655.91,23.14L661.23,27.33L673.37,38.62L676.74,42.08L687.27,53.6L703.11,71.83L718.95,89.6" style="fill: rgb(105, 179, 162); fill-opacity: 0.5; stroke-width: 0;"></path></g></g><g class="errorbars"></g><g class="lines"><path class="js-line" d="M-57.22,127.49L-9.7,110.44L0,107.08L21.98,100.74L25.74,99.89L37.82,97.7L43.79,96.93L62.59,95.65L69.5,95.53L119.28,94.78L131.6,93.55L148.71,90.84L157.45,89.05L184.48,82.1L195.35,78.78L214.57,72.23L223.41,68.98L268.09,52.82L270.49,52.12L285.14,48.58L289.58,47.81L303,46.45L307.11,46.35L320.83,47.1L322.95,47.37L332.87,49.12L334.34,49.46L347.52,53.19L352.88,55.07L362.85,59.06L370.47,62.49L394.08,74.69L396.52,76.04L438.89,99.33L449.67,104.12L454.93,106.1L465.51,109.1L481.35,110.56L497.19,107.54L513.03,99.58L528.87,86.99L544.71,70.96L559.51,54.55L576.53,36.46L580.21,32.91L592.23,22.79L593.48,21.89L599,18.27L603.29,15.92L613.88,11.93L623.91,10.7L629.82,11.16L633.54,11.9L641.11,14.43L647.61,17.68L655.91,23.14L661.23,27.33L673.37,38.62L676.74,42.08L687.27,53.6L703.11,71.83L718.95,89.6" style="vector-effect: non-scaling-stroke; fill: none; stroke: rgb(105, 179, 162); stroke-opacity: 1; stroke-width: 2px; opacity: 1;"></path></g><g class="points"></g><g class="text"></g></g><g class="trace scatter trace69643706-8cea-4b99-a8a9-3d7e3affaa18" style="stroke-miterlimit: 2; opacity: 1;"><g class="fills"></g><g class="errorbars"></g><g class="lines"><path class="js-line" d="M393.94,146.73L393.94,74.61" style="vector-effect: non-scaling-stroke; fill: none; stroke: rgb(105, 179, 162); stroke-opacity: 1; stroke-width: 2px; opacity: 1; stroke-dasharray: 9px, 9px;"></path></g><g class="points"><path class="point" d="M3,0A3,3 0 1,1 0,-3A3,3 0 0,1 3,0Z" style="opacity: 1; stroke-width: 0px; fill: rgb(105, 179, 162); fill-opacity: 1;" transform="translate(393.94,146.73)"></path><path class="point" d="M3,0A3,3 0 1,1 0,-3A3,3 0 0,1 3,0Z" style="opacity: 1; stroke-width: 0px; fill: rgb(105, 179, 162); fill-opacity: 1;" transform="translate(393.94,74.61)"></path></g><g class="text"></g></g><g class="trace scatter trace0f95740d-fbfd-416c-9695-ee32f7a3b931" style="stroke-miterlimit: 2; opacity: 1;"><g class="fills"></g><g class="errorbars"></g><g class="lines"><path class="js-line" d="M361.67,146.73L361.67,58.56" style="vector-effect: non-scaling-stroke; fill: none; stroke: rgb(105, 179, 162); stroke-opacity: 1; stroke-width: 2px; opacity: 1;"></path></g><g class="points"></g><g class="text"></g></g></g></g><g class="overplot"></g><path class="xlines-above crisp" d="M0,0" style="fill: none;"></path><path class="ylines-above crisp" d="M0,0" style="fill: none;"></path><g class="overlines-above"></g><g class="xaxislayer-above"><g class="x2tick"><text data-math="N" data-unformatted="0.1" style='font-family: "Open Sans", verdana, arial, sans-serif; font-size: 12px; fill: rgb(42, 63, 95); fill-opacity: 1; white-space: pre; opacity: 1;' text-anchor="middle" transform="translate(129.21,0)" x="0" y="333">0.1</text></g><g class="x2tick"><text data-math="N" data-unformatted="0.15" style='font-family: "Open Sans", verdana, arial, sans-serif; font-size: 12px; fill: rgb(42, 63, 95); fill-opacity: 1; white-space: pre; opacity: 1;' text-anchor="middle" transform="translate(252.17,0)" x="0" y="333">0.15</text></g><g class="x2tick"><text data-math="N" data-unformatted="0.2" style='font-family: "Open Sans", verdana, arial, sans-serif; font-size: 12px; fill: rgb(42, 63, 95); fill-opacity: 1; white-space: pre; opacity: 1;' text-anchor="middle" transform="translate(375.14,0)" x="0" y="333">0.2</text></g><g class="x2tick"><text data-math="N" data-unformatted="0.25" style='font-family: "Open Sans", verdana, arial, sans-serif; font-size: 12px; fill: rgb(42, 63, 95); fill-opacity: 1; white-space: pre; opacity: 1;' text-anchor="middle" transform="translate(498.11,0)" x="0" y="333">0.25</text></g><g class="x2tick"><text data-math="N" data-unformatted="0.3" style='font-family: "Open Sans", verdana, arial, sans-serif; font-size: 12px; fill: rgb(42, 63, 95); fill-opacity: 1; white-space: pre; opacity: 1;' text-anchor="middle" transform="translate(621.07,0)" x="0" y="333">0.3</text></g><g class="x2tick"><text data-math="N" data-unformatted="0.35" style='font-family: "Open Sans", verdana, arial, sans-serif; font-size: 12px; fill: rgb(42, 63, 95); fill-opacity: 1; white-space: pre; opacity: 1;' text-anchor="middle" transform="translate(744.04,0)" x="0" y="333">0.35</text></g></g><g class="yaxislayer-above"><g class="y2tick"><text data-math="N" data-unformatted="0" style='font-family: "Open Sans", verdana, arial, sans-serif; font-size: 12px; fill: rgb(42, 63, 95); fill-opacity: 1; white-space: pre; opacity: 1;' text-anchor="end" transform="translate(0,308.3299999999999)" x="79" y="4.199999999999999">0</text></g><g class="y2tick"><text data-math="N" data-unformatted="2" style='font-family: "Open Sans", verdana, arial, sans-serif; font-size: 12px; fill: rgb(42, 63, 95); fill-opacity: 1; white-space: pre; opacity: 1;' text-anchor="end" transform="translate(0,260.25)" x="79" y="4.199999999999999">2</text></g><g class="y2tick"><text data-math="N" data-unformatted="4" style='font-family: "Open Sans", verdana, arial, sans-serif; font-size: 12px; fill: rgb(42, 63, 95); fill-opacity: 1; white-space: pre; opacity: 1;' text-anchor="end" transform="translate(0,212.15999999999997)" x="79" y="4.199999999999999">4</text></g><g class="y2tick"><text data-math="N" data-unformatted="6" style='font-family: "Open Sans", verdana, arial, sans-serif; font-size: 12px; fill: rgb(42, 63, 95); fill-opacity: 1; white-space: pre; opacity: 1;' text-anchor="end" transform="translate(0,164.07999999999996)" x="79" y="4.199999999999999">6</text></g></g><g class="overaxes-above"></g></g></g><g class="polarlayer"></g><g class="smithlayer"></g><g class="ternarylayer"></g><g class="geolayer"></g><g class="funnelarealayer"></g><g class="pielayer"></g><g class="iciclelayer"></g><g class="treemaplayer"></g><g class="sunburstlayer"></g><g class="glimages"></g>
</g>
<g transform="translate(0.0, 0.0)">
<defs id="topdefs-66f05e"><g class="clips"></g><clippath id="legend66f05e"><rect height="143" width="127" x="0" y="0"></rect></clippath></defs><g class="indicatorlayer"></g><g class="layer-above"><g class="imagelayer"></g><g class="shapelayer"></g></g><g class="infolayer"><g class="legend" pointer-events="all" transform="translate(780.74,188)"><rect class="bg" height="143" shape-rendering="crispEdges" style="stroke: rgb(68, 68, 68); stroke-opacity: 1; fill: rgb(255, 255, 255); fill-opacity: 1; stroke-width: 0px;" width="127" x="0" y="0"></rect><g class="scrollbox" clip-path="url(#legend66f05e)" transform=""><text class="legendtitletext" data-math="N" data-unformatted="Legend" style='font-family: "Open Sans", verdana, arial, sans-serif; font-size: 14px; fill: rgb(42, 63, 95); fill-opacity: 1; white-space: pre;' text-anchor="start" x="2" y="18.2">Legend</text><g class="groups"><g class="traces" style="opacity: 1;" transform="translate(0,32.7)"><text class="legendtext" data-math="N" data-unformatted="Train Dataset" style='font-family: "Open Sans", verdana, arial, sans-serif; font-size: 12px; fill: rgb(42, 63, 95); fill-opacity: 1; white-space: pre;' text-anchor="start" x="40" y="4.680000000000001">Train Dataset</text><g class="layers"><g class="legendfill"><path class="js-fill" d="M5,-2h30v6h-30z" style="stroke-width: 0; fill: rgb(0, 0, 139); fill-opacity: 0.5;"></path></g><g class="legendlines"><path class="js-line" d="M5,-2h30" style="fill: none; stroke: rgb(0, 0, 139); stroke-opacity: 1; stroke-width: 2px;"></path></g><g class="legendsymbols"><g class="legendpoints"></g></g></g><rect class="legendtoggle" height="19" pointer-events="all" style="cursor: pointer; fill: rgb(0, 0, 0); fill-opacity: 0;" width="121.234375" x="0" y="-9.5"></rect></g><g class="traces" style="opacity: 1;" transform="translate(0,51.7)"><text class="legendtext" data-math="N" data-unformatted="Train Mean" style='font-family: "Open Sans", verdana, arial, sans-serif; font-size: 12px; fill: rgb(42, 63, 95); fill-opacity: 1; white-space: pre;' text-anchor="start" x="40" y="4.680000000000001">Train Mean</text><g class="layers" style="opacity: 1;"><g class="legendfill"></g><g class="legendlines"><path class="js-line" d="M5,0h30" style="fill: none; stroke: rgb(0, 0, 139); stroke-opacity: 1; stroke-dasharray: 9px, 9px; stroke-width: 2px;"></path></g><g class="legendsymbols"><g class="legendpoints"><path class="scatterpts" d="M3,0A3,3 0 1,1 0,-3A3,3 0 0,1 3,0Z" style="opacity: 1; stroke-width: 0px; fill: rgb(0, 0, 139); fill-opacity: 1;" transform="translate(20,0)"></path></g></g></g><rect class="legendtoggle" height="19" pointer-events="all" style="cursor: pointer; fill: rgb(0, 0, 0); fill-opacity: 0;" width="121.234375" x="0" y="-9.5"></rect></g><g class="traces" style="opacity: 1;" transform="translate(0,70.7)"><text class="legendtext" data-math="N" data-unformatted="Train Median" style='font-family: "Open Sans", verdana, arial, sans-serif; font-size: 12px; fill: rgb(42, 63, 95); fill-opacity: 1; white-space: pre;' text-anchor="start" x="40" y="4.680000000000001">Train Median</text><g class="layers" style="opacity: 1;"><g class="legendfill"></g><g class="legendlines"><path class="js-line" d="M5,0h30" style="fill: none; stroke: rgb(0, 0, 139); stroke-opacity: 1; stroke-width: 2px;"></path></g><g class="legendsymbols"><g class="legendpoints"></g></g></g><rect class="legendtoggle" height="19" pointer-events="all" style="cursor: pointer; fill: rgb(0, 0, 0); fill-opacity: 0;" width="121.234375" x="0" y="-9.5"></rect></g><g class="traces" style="opacity: 1;" transform="translate(0,89.7)"><text class="legendtext" data-math="N" data-unformatted="Test Dataset" style='font-family: "Open Sans", verdana, arial, sans-serif; font-size: 12px; fill: rgb(42, 63, 95); fill-opacity: 1; white-space: pre;' text-anchor="start" x="40" y="4.680000000000001">Test Dataset</text><g class="layers"><g class="legendfill"><path class="js-fill" d="M5,-2h30v6h-30z" style="stroke-width: 0; fill: rgb(105, 179, 162); fill-opacity: 0.5;"></path></g><g class="legendlines"><path class="js-line" d="M5,-2h30" style="fill: none; stroke: rgb(105, 179, 162); stroke-opacity: 1; stroke-width: 2px;"></path></g><g class="legendsymbols"><g class="legendpoints"></g></g></g><rect class="legendtoggle" height="19" pointer-events="all" style="cursor: pointer; fill: rgb(0, 0, 0); fill-opacity: 0;" width="121.234375" x="0" y="-9.5"></rect></g><g class="traces" style="opacity: 1;" transform="translate(0,108.7)"><text class="legendtext" data-math="N" data-unformatted="Test Mean" style='font-family: "Open Sans", verdana, arial, sans-serif; font-size: 12px; fill: rgb(42, 63, 95); fill-opacity: 1; white-space: pre;' text-anchor="start" x="40" y="4.680000000000001">Test Mean</text><g class="layers" style="opacity: 1;"><g class="legendfill"></g><g class="legendlines"><path class="js-line" d="M5,0h30" style="fill: none; stroke: rgb(105, 179, 162); stroke-opacity: 1; stroke-dasharray: 9px, 9px; stroke-width: 2px;"></path></g><g class="legendsymbols"><g class="legendpoints"><path class="scatterpts" d="M3,0A3,3 0 1,1 0,-3A3,3 0 0,1 3,0Z" style="opacity: 1; stroke-width: 0px; fill: rgb(105, 179, 162); fill-opacity: 1;" transform="translate(20,0)"></path></g></g></g><rect class="legendtoggle" height="19" pointer-events="all" style="cursor: pointer; fill: rgb(0, 0, 0); fill-opacity: 0;" width="121.234375" x="0" y="-9.5"></rect></g><g class="traces" style="opacity: 1;" transform="translate(0,127.7)"><text class="legendtext" data-math="N" data-unformatted="Test Median" style='font-family: "Open Sans", verdana, arial, sans-serif; font-size: 12px; fill: rgb(42, 63, 95); fill-opacity: 1; white-space: pre;' text-anchor="start" x="40" y="4.680000000000001">Test Median</text><g class="layers" style="opacity: 1;"><g class="legendfill"></g><g class="legendlines"><path class="js-line" d="M5,0h30" style="fill: none; stroke: rgb(105, 179, 162); stroke-opacity: 1; stroke-width: 2px;"></path></g><g class="legendsymbols"><g class="legendpoints"></g></g></g><rect class="legendtoggle" height="19" pointer-events="all" style="cursor: pointer; fill: rgb(0, 0, 0); fill-opacity: 0;" width="121.234375" x="0" y="-9.5"></rect></g></g></g><rect class="scrollbar" height="0" rx="20" ry="3" style="fill: rgb(128, 139, 164); fill-opacity: 1;" width="0" x="0" y="0"></rect></g><g class="g-gtitle"><text class="gtitle" data-math="N" data-unformatted="Mean Green Relative Intensity" dy="0em" style='font-family: "Open Sans", verdana, arial, sans-serif; font-size: 17px; fill: rgb(42, 63, 95); opacity: 1; font-weight: normal; white-space: pre;' text-anchor="middle" x="460" y="50">Mean Green Relative Intensity</text></g><g class="g-xtitle"></g><g class="g-x2title"><text class="x2title" data-math="N" data-unformatted="Mean Green Relative Intensity" style='font-family: "Open Sans", verdana, arial, sans-serif; font-size: 14px; fill: rgb(42, 63, 95); opacity: 1; font-weight: normal; white-space: pre;' text-anchor="middle" x="423.5" y="360.8">Mean Green Relative Intensity</text></g><g class="g-ytitle"></g><g class="g-y2title"><text class="y2title" data-math="N" data-unformatted="Probability Density" style='font-family: "Open Sans", verdana, arial, sans-serif; font-size: 14px; fill: rgb(42, 63, 95); opacity: 1; font-weight: normal; white-space: pre;' text-anchor="middle" transform="rotate(-90,46.559375,240.79999999999995)" x="46.559375" y="240.79999999999995">Probability Density</text></g><g class="annotation" data-index="0" style="opacity: 1;"><g class="annotation-text-g" transform="rotate(0,423.5,88.49999999999999)"><g class="cursor-pointer" transform="translate(284,77)"><rect class="bg" height="22" style="stroke-width: 1px; stroke: rgb(0, 0, 0); stroke-opacity: 0; fill: rgb(0, 0, 0); fill-opacity: 0;" width="279" x="0.5" y="0.5"></rect><text class="annotation-text" data-math="N" data-unformatted="Drift Score (Kolmogorov-Smirnov)" style='font-family: "Open Sans", verdana, arial, sans-serif; font-size: 16px; fill: rgb(42, 63, 95); fill-opacity: 1; white-space: pre;' text-anchor="middle" x="139.8984375" y="18">Drift Score (Kolmogorov-Smirnov)</text></g></g></g><g class="annotation" data-index="1" style="opacity: 1;"><g class="annotation-text-g" transform="rotate(0,423.5,150.09999999999997)"><g class="cursor-pointer" transform="translate(357,139)"><rect class="bg" height="22" style="stroke-width: 1px; stroke: rgb(0, 0, 0); stroke-opacity: 0; fill: rgb(0, 0, 0); fill-opacity: 0;" width="133" x="0.5" y="0.5"></rect><text class="annotation-text" data-math="N" data-unformatted="Distribution Plot" style='font-family: "Open Sans", verdana, arial, sans-serif; font-size: 16px; fill: rgb(42, 63, 95); fill-opacity: 1; white-space: pre;' text-anchor="middle" x="66.4453125" y="18">Distribution Plot</text></g></g></g></g><g class="menulayer"></g><g class="zoomlayer"></g>
</g>
<g transform="translate(0.0, 0.0)">
<g class="hoverlayer"></g>
</g>
</svg>