<svg xmlns="http://www.w3.org/2000/svg" viewBox="0 0 920.0 400.0" style="overflow: hidden;">
<g transform="translate(0.0, 0.0)">
<defs id="defs-d010ae"><g class="clips"><clippath class="plotclip" id="clipd010aexyplot"><rect height="17.599999999999966" width="687"></rect></clippath><clippath class="plotclip" id="clipd010aex2y2plot"><rect height="158.4" width="687"></rect></clippath><clippath class="axesclip" id="clipd010aex"><rect height="400" width="687" x="80" y="0"></rect></clippath><clippath class="axesclip" id="clipd010aey"><rect height="17.599999999999966" width="920" x="0" y="100"></rect></clippath><clippath class="axesclip" id="clipd010aexy"><rect height="17.599999999999966" width="687" x="80" y="100"></rect></clippath><clippath class="axesclip" id="clipd010aey2"><rect height="158.4" width="920" x="0" y="161.59999999999997"></rect></clippath><clippath class="axesclip" id="clipd010aexy2"><rect height="158.4" width="687" x="80" y="161.59999999999997"></rect></clippath><clippath class="axesclip" id="clipd010aex2"><rect height="400" width="687" x="80" y="0"></rect></clippath><clippath class="axesclip" id="clipd010aex2y"><rect height="17.599999999999966" width="687" x="80" y="100"></rect></clippath><clippath class="axesclip" id="clipd010aex2y2"><rect height="158.4" width="687" x="80" y="161.59999999999997"></rect></clippath></g><g class="gradients"></g><g class="patterns"></g></defs><g class="bglayer"><rect class="bg" height="17.599999999999966" style="fill: rgb(229, 236, 246); fill-opacity: 1; stroke-width: 0;" width="687" x="80" y="100"></rect><rect class="bg" height="158.4" style="fill: rgb(229, 236, 246); fill-opacity: 1; stroke-width: 0;" width="687" x="80" y="161.59999999999997"></rect></g><g class="draglayer cursor-crosshair"><g class="xy"><rect class="nsewdrag drag cursor-pointer" data-subplot="xy" height="17.599999999999966" style="fill: transparent; stroke-width: 0; pointer-events: all;" width="687" x="80" y="100"></rect><rect class="nwdrag drag cursor-pointer" data-subplot="xy" height="20" style="fill: transparent; stroke-width: 0; pointer-events: none;" width="20" x="60" y="80"></rect><rect class="nedrag drag cursor-pointer" data-subplot="xy" height="20" style="fill: transparent; stroke-width: 0; pointer-events: none;" width="20" x="767" y="80"></rect><rect class="swdrag drag cursor-pointer" data-subplot="xy" height="20" style="fill: transparent; stroke-width: 0; pointer-events: none;" width="20" x="60" y="117.59999999999997"></rect><rect class="sedrag drag cursor-pointer" data-subplot="xy" height="20" style="fill: transparent; stroke-width: 0; pointer-events: none;" width="20" x="767" y="117.59999999999997"></rect><rect class="ewdrag drag cursor-pointer" data-subplot="xy" height="20" style="fill: transparent; stroke-width: 0; pointer-events: none;" width="549.6" x="148.7" y="118.09999999999997"></rect><rect class="wdrag drag cursor-pointer" data-subplot="xy" height="20" style="fill: transparent; stroke-width: 0; pointer-events: none;" width="68.7" x="80" y="118.09999999999997"></rect><rect class="edrag drag cursor-pointer" data-subplot="xy" height="20" style="fill: transparent; stroke-width: 0; pointer-events: none;" width="68.7" x="698.3000000000001" y="118.09999999999997"></rect><rect class="nsdrag drag cursor-pointer" data-subplot="xy" height="14.079999999999973" style="fill: transparent; stroke-width: 0; pointer-events: none;" width="20" x="59.5" y="101.75999999999999"></rect><rect class="sdrag drag cursor-pointer" data-subplot="xy" height="1.7599999999999967" style="fill: transparent; stroke-width: 0; pointer-events: none;" width="20" x="59.5" y="115.83999999999997"></rect><rect class="ndrag drag cursor-pointer" data-subplot="xy" height="1.7599999999999967" style="fill: transparent; stroke-width: 0; pointer-events: none;" width="20" x="59.5" y="100"></rect></g><g class="x2y2"><rect class="nsewdrag drag cursor-ew-resize" data-subplot="x2y2" height="158.4" style="fill: transparent; stroke-width: 0; pointer-events: all;" width="687" x="80" y="161.59999999999997"></rect><rect class="nwdrag drag cursor-w-resize" data-subplot="x2y2" height="20" style="fill: transparent; stroke-width: 0; pointer-events: all;" width="20" x="60" y="141.59999999999997"></rect><rect class="nedrag drag cursor-e-resize" data-subplot="x2y2" height="20" style="fill: transparent; stroke-width: 0; pointer-events: all;" width="20" x="767" y="141.59999999999997"></rect><rect class="swdrag drag cursor-w-resize" data-subplot="x2y2" height="20" style="fill: transparent; stroke-width: 0; pointer-events: all;" width="20" x="60" y="320"></rect><rect class="sedrag drag cursor-e-resize" data-subplot="x2y2" height="20" style="fill: transparent; stroke-width: 0; pointer-events: all;" width="20" x="767" y="320"></rect><rect class="ewdrag drag cursor-ew-resize" data-subplot="x2y2" height="20" style="fill: transparent; stroke-width: 0; pointer-events: all;" width="549.6" x="148.7" y="320.5"></rect><rect class="wdrag drag cursor-w-resize" data-subplot="x2y2" height="20" style="fill: transparent; stroke-width: 0; pointer-events: all;" width="68.7" x="80" y="320.5"></rect><rect class="edrag drag cursor-e-resize" data-subplot="x2y2" height="20" style="fill: transparent; stroke-width: 0; pointer-events: all;" width="68.7" x="698.3000000000001" y="320.5"></rect><rect class="nsdrag drag cursor-pointer" data-subplot="x2y2" height="126.72000000000001" style="fill: transparent; stroke-width: 0; pointer-events: none;" width="20" x="59.5" y="177.43999999999997"></rect><rect class="sdrag drag cursor-pointer" data-subplot="x2y2" height="15.840000000000002" style="fill: transparent; stroke-width: 0; pointer-events: none;" width="20" x="59.5" y="304.15999999999997"></rect><rect class="ndrag drag cursor-pointer" data-subplot="x2y2" height="15.840000000000002" style="fill: transparent; stroke-width: 0; pointer-events: none;" width="20" x="59.5" y="161.59999999999997"></rect></g></g><g class="layer-below"><g class="imagelayer"></g><g class="shapelayer"></g></g><g class="cartesianlayer"><g class="subplot xy"><g class="layer-subplot"><g class="shapelayer"></g><g class="imagelayer"></g></g><g class="minor-gridlayer"><g class="x"></g><g class="y"></g></g><g class="gridlayer"><g class="x"></g><g class="y"></g></g><g class="zerolinelayer"><path class="xzl zl crisp" d="M0,100v17.599999999999966" style="stroke: rgb(255, 255, 255); stroke-opacity: 1; stroke-width: 2px;" transform="translate(80,0)"></path></g><path class="xlines-below"></path><path class="ylines-below"></path><g class="overlines-below"></g><g class="xaxislayer-below"></g><g class="yaxislayer-below"></g><g class="overaxes-below"></g><g class="plot" clip-path="url(#clipd010aexyplot)" transform="translate(80,100)"><g class="barlayer mlayer"><g class="trace bars" style="opacity: 1;"><g class="points"><g class="point"><path d="M0,15.84V1.76H171.75V15.84Z" style="vector-effect: non-scaling-stroke; opacity: 1; stroke-width: 0.5px; fill: rgb(1, 184, 170); fill-opacity: 1; stroke: rgb(229, 236, 246); stroke-opacity: 1;"></path></g></g></g><g class="trace bars" style="opacity: 1;"><g class="points"><g class="point"><path d="M171.75,15.84V1.76H249.99V15.84Z" style="vector-effect: non-scaling-stroke; opacity: 1; stroke-width: 0.5px; fill: rgb(242, 200, 15); fill-opacity: 1; stroke: rgb(229, 236, 246); stroke-opacity: 1;"></path></g></g></g></g></g><g class="overplot"></g><path class="xlines-above crisp" d="M80,118.09999999999997H767" style="fill: none; stroke-width: 1px; stroke: rgb(0, 0, 0); stroke-opacity: 1;"></path><path class="ylines-above crisp" d="M0,0" style="fill: none;"></path><g class="overlines-above"></g><g class="xaxislayer-above"><g class="xtick"><text data-math="N" data-unformatted="0" style='font-family: "Open Sans", verdana, arial, sans-serif; font-size: 12px; fill: rgb(42, 63, 95); fill-opacity: 1; white-space: pre; opacity: 1;' text-anchor="middle" transform="translate(80,0)" x="0" y="132.99999999999997">0</text></g><g class="xtick"><text data-math="N" data-unformatted="0.05" style='font-family: "Open Sans", verdana, arial, sans-serif; font-size: 12px; fill: rgb(42, 63, 95); fill-opacity: 1; white-space: pre; opacity: 1;' text-anchor="middle" transform="translate(165.88,0)" x="0" y="132.99999999999997">0.05</text></g><g class="xtick"><text data-math="N" data-unformatted="0.1" style='font-family: "Open Sans", verdana, arial, sans-serif; font-size: 12px; fill: rgb(42, 63, 95); fill-opacity: 1; white-space: pre; opacity: 1;' text-anchor="middle" transform="translate(251.75,0)" x="0" y="132.99999999999997">0.1</text></g><g class="xtick"><text data-math="N" data-unformatted="0.15" style='font-family: "Open Sans", verdana, arial, sans-serif; font-size: 12px; fill: rgb(42, 63, 95); fill-opacity: 1; white-space: pre; opacity: 1;' text-anchor="middle" transform="translate(337.63,0)" x="0" y="132.99999999999997">0.15</text></g><g class="xtick"><text data-math="N" data-unformatted="0.2" style='font-family: "Open Sans", verdana, arial, sans-serif; font-size: 12px; fill: rgb(42, 63, 95); fill-opacity: 1; white-space: pre; opacity: 1;' text-anchor="middle" transform="translate(423.5,0)" x="0" y="132.99999999999997">0.2</text></g><g class="xtick"><text data-math="N" data-unformatted="0.25" style='font-family: "Open Sans", verdana, arial, sans-serif; font-size: 12px; fill: rgb(42, 63, 95); fill-opacity: 1; white-space: pre; opacity: 1;' text-anchor="middle" transform="translate(509.38,0)" x="0" y="132.99999999999997">0.25</text></g><g class="xtick"><text data-math="N" data-unformatted="0.3" style='font-family: "Open Sans", verdana, arial, sans-serif; font-size: 12px; fill: rgb(42, 63, 95); fill-opacity: 1; white-space: pre; opacity: 1;' text-anchor="middle" transform="translate(595.25,0)" x="0" y="132.99999999999997">0.3</text></g><g class="xtick"><text data-math="N" data-unformatted="0.35" style='font-family: "Open Sans", verdana, arial, sans-serif; font-size: 12px; fill: rgb(42, 63, 95); fill-opacity: 1; white-space: pre; opacity: 1;' text-anchor="middle" transform="translate(681.13,0)" x="0" y="132.99999999999997">0.35</text></g><g class="xtick"><text data-math="N" data-unformatted="0.4" style='font-family: "Open Sans", verdana, arial, sans-serif; font-size: 12px; fill: rgb(42, 63, 95); fill-opacity: 1; white-space: pre; opacity: 1;' text-anchor="middle" transform="translate(767,0)" x="0" y="132.99999999999997">0.4</text></g></g><g class="yaxislayer-above"></g><g class="overaxes-above"></g></g><g class="subplot x2y2"><g class="layer-subplot"><g class="shapelayer"></g><g class="imagelayer"></g></g><g class="minor-gridlayer"><g class="x2"></g><g class="y2"></g></g><g class="gridlayer"><g class="x2"><path class="x2grid crisp" d="M0,161.59999999999997v158.4" style="stroke: rgb(255, 255, 255); stroke-opacity: 1; stroke-width: 1px;" transform="translate(109.09,0)"></path><path class="x2grid crisp" d="M0,161.59999999999997v158.4" style="stroke: rgb(255, 255, 255); stroke-opacity: 1; stroke-width: 1px;" transform="translate(230.96,0)"></path><path class="x2grid crisp" d="M0,161.59999999999997v158.4" style="stroke: rgb(255, 255, 255); stroke-opacity: 1; stroke-width: 1px;" transform="translate(352.83,0)"></path><path class="x2grid crisp" d="M0,161.59999999999997v158.4" style="stroke: rgb(255, 255, 255); stroke-opacity: 1; stroke-width: 1px;" transform="translate(474.7,0)"></path><path class="x2grid crisp" d="M0,161.59999999999997v158.4" style="stroke: rgb(255, 255, 255); stroke-opacity: 1; stroke-width: 1px;" transform="translate(596.57,0)"></path><path class="x2grid crisp" d="M0,161.59999999999997v158.4" style="stroke: rgb(255, 255, 255); stroke-opacity: 1; stroke-width: 1px;" transform="translate(718.44,0)"></path></g><g class="y2"><path class="y2grid crisp" d="M80,0h687" style="stroke: rgb(255, 255, 255); stroke-opacity: 1; stroke-width: 1px;" transform="translate(0,271.96)"></path><path class="y2grid crisp" d="M80,0h687" style="stroke: rgb(255, 255, 255); stroke-opacity: 1; stroke-width: 1px;" transform="translate(0,235.58999999999997)"></path><path class="y2grid crisp" d="M80,0h687" style="stroke: rgb(255, 255, 255); stroke-opacity: 1; stroke-width: 1px;" transform="translate(0,199.22999999999996)"></path><path class="y2grid crisp" d="M80,0h687" style="stroke: rgb(255, 255, 255); stroke-opacity: 1; stroke-width: 1px;" transform="translate(0,162.85999999999996)"></path></g></g><g class="zerolinelayer"><path class="y2zl zl crisp" d="M80,0h687" style="stroke: rgb(255, 255, 255); stroke-opacity: 1; stroke-width: 2px;" transform="translate(0,308.3299999999999)"></path></g><path class="xlines-below"></path><path class="ylines-below"></path><g class="overlines-below"></g><g class="xaxislayer-below"></g><g class="yaxislayer-below"></g><g class="overaxes-below"></g><g class="plot" clip-path="url(#clipd010aex2y2plot)" transform="translate(80,161.59999999999997)"><g class="scatterlayer mlayer"><g class="trace scatter trace2bdd3349-e4c6-45ee-a319-83160451f49e" style="stroke-miterlimit: 2;"><g class="fills"><g><path class="js-fill" d="M836.05,146.73L-104.47,146.73L-104.47,146.73L10.69,146.22L20.53,145.74L29.89,144.98L49.08,142.18L106.66,129.7L123.23,127.21L125.86,126.72L144.32,121.32L150.53,118.5L164.25,110.53L185.37,96.33L200.28,88.52L207.33,86.29L210.82,85.59L212.07,85.41L221.73,85.21L241.03,90.06L248.19,92.85L260.22,97.22L270.55,99.13L282.05,97.3L289.26,93.28L298.61,84.4L303.11,78.71L317.8,55.47L323.89,44.93L337.54,23.52L339.95,20.43L347,13.2L351.19,10.3L356.86,8.19L359.44,7.92L365.47,8.94L371.6,12.17L377.9,17.42L379.75,19.27L385.44,25.59L390.85,32.2L399.51,43.02L399.51,43.02L413.42,57.9L414.3,58.65L424.56,65.02L432.97,66.8L437,66.56L444.85,64.24L451.06,60.93L458.07,56.02L461.75,53.11L490.04,30.27L490.55,29.94L495.62,26.92L507.12,22.4L509.75,21.88L517.77,21.58L524.52,22.89L526.77,23.64L533.69,26.88L536.13,28.35L540.03,31L545.3,35.14L557.5,46.47L558.82,47.79L586.53,75.6L593.36,81.85L608.47,94.59L619.53,103.17L638.63,116.64L644.11,120.08L663.3,129.74L682.5,134.41L687,134.75L701.69,134.4L720.89,132.8L740.08,133.2L816.86,145.94L836.05,146.54" style="fill: rgb(0, 0, 139); fill-opacity: 0.5; stroke-width: 0;"></path></g></g><g class="errorbars"></g><g class="lines"><path class="js-line" d="M-104.47,146.73L10.69,146.22L20.53,145.74L29.89,144.98L49.08,142.18L106.66,129.7L123.23,127.21L125.86,126.72L144.32,121.32L150.53,118.5L164.25,110.53L185.37,96.33L200.28,88.52L207.33,86.29L210.82,85.59L212.07,85.41L221.73,85.21L241.03,90.06L248.19,92.85L260.22,97.22L270.55,99.13L282.05,97.3L289.26,93.28L298.61,84.4L303.11,78.71L317.8,55.47L323.89,44.93L337.54,23.52L339.95,20.43L347,13.2L351.19,10.3L356.86,8.19L359.44,7.92L365.47,8.94L371.6,12.17L377.9,17.42L379.75,19.27L385.44,25.59L390.85,32.2L399.51,43.02L399.51,43.02L413.42,57.9L414.3,58.65L424.56,65.02L432.97,66.8L437,66.56L444.85,64.24L451.06,60.93L458.07,56.02L461.75,53.11L490.04,30.27L490.55,29.94L495.62,26.92L507.12,22.4L509.75,21.88L517.77,21.58L524.52,22.89L526.77,23.64L533.69,26.88L536.13,28.35L540.03,31L545.3,35.14L557.5,46.47L558.82,47.79L586.53,75.6L593.36,81.85L608.47,94.59L619.53,103.17L638.63,116.64L644.11,120.08L663.3,129.74L682.5,134.41L687,134.75L701.69,134.4L720.89,132.8L740.08,133.2L816.86,145.94L836.05,146.54" style="vector-effect: non-scaling-stroke; fill: none; stroke: rgb(0, 0, 139); stroke-opacity: 1; stroke-width: 2px; opacity: 1;"></path></g><g class="points"></g><g class="text"></g></g><g class="trace scatter traceef6b6cd0-677a-41c6-9c56-7febb9842a5d" style="stroke-miterlimit: 2; opacity: 1;"><g class="fills"></g><g class="errorbars"></g><g class="lines"><path class="js-line" d="M414.3,146.73L414.3,58.65" style="vector-effect: non-scaling-stroke; fill: none; stroke: rgb(0, 0, 139); stroke-opacity: 1; stroke-width: 2px; opacity: 1; stroke-dasharray: 9px, 9px;"></path></g><g class="points"><path class="point" d="M3,0A3,3 0 1,1 0,-3A3,3 0 0,1 3,0Z" style="opacity: 1; stroke-width: 0px; fill: rgb(0, 0, 139); fill-opacity: 1;" transform="translate(414.3,146.73)"></path><path class="point" d="M3,0A3,3 0 1,1 0,-3A3,3 0 0,1 3,0Z" style="opacity: 1; stroke-width: 0px; fill: rgb(0, 0, 139); fill-opacity: 1;" transform="translate(414.3,58.65)"></path></g><g class="text"></g></g><g class="trace scatter trace3be1deab-53a7-48b2-a85f-d1e8aaa3b711" style="stroke-miterlimit: 2; opacity: 1;"><g class="fills"></g><g class="errorbars"></g><g class="lines"><path class="js-line" d="M399.51,146.73L399.51,43.02" style="vector-effect: non-scaling-stroke; fill: none; stroke: rgb(0, 0, 139); stroke-opacity: 1; stroke-width: 2px; opacity: 1;"></path></g><g class="points"></g><g class="text"></g></g><g class="trace scatter trace9c8ca8e3-df5b-4dae-956f-f3bc1a1a8bac" style="stroke-miterlimit: 2;"><g class="fills"><g><path class="js-fill" d="M836.05,146.73L-104.47,146.73L-104.47,141.81L-66.09,138.26L-46.89,135.7L0,128.4L10.69,127.29L29.89,126.34L49.08,126.34L68.28,126.11L87.47,124.44L123.23,117.4L125.86,116.82L150.53,112.17L164.25,110.34L207.33,104.82L210.82,104.15L221.83,101.66L238.25,96.69L251.46,91.48L256.73,89.1L270.55,82.11L279.41,77.17L312.01,59.15L316.87,56.94L323.89,54.16L333.28,51.34L341.63,49.8L344.36,49.5L352.69,49.21L356.19,49.37L365.47,50.48L371.6,51.72L385.44,55.54L390.85,57.27L414.3,64.29L424.56,66.28L437,67.11L444.85,66.58L458.07,63.76L461.75,62.56L471.36,58.7L477.95,55.55L509.67,40.07L509.75,40.04L518.63,37.43L524.52,36.51L533.69,36.59L536.13,36.94L540.03,37.79L545.3,39.5L552.35,42.76L556.06,44.89L565.91,51.73L567.33,52.84L586.53,69.68L593.36,76.05L608.47,89.68L619.53,98.76L624.91,102.81L638.63,111.96L644.11,115.14L663.17,124.29L687,132.06L701.69,135.14L740.08,138.9L759.28,139.76L836.05,143.08" style="fill: rgb(105, 179, 162); fill-opacity: 0.5; stroke-width: 0;"></path></g></g><g class="errorbars"></g><g class="lines"><path class="js-line" d="M-104.47,141.81L-66.09,138.26L-46.89,135.7L0,128.4L10.69,127.29L29.89,126.34L49.08,126.34L68.28,126.11L87.47,124.44L123.23,117.4L125.86,116.82L150.53,112.17L164.25,110.34L207.33,104.82L210.82,104.15L221.83,101.66L238.25,96.69L251.46,91.48L256.73,89.1L270.55,82.11L279.41,77.17L312.01,59.15L316.87,56.94L323.89,54.16L333.28,51.34L341.63,49.8L344.36,49.5L352.69,49.21L356.19,49.37L365.47,50.48L371.6,51.72L385.44,55.54L390.85,57.27L414.3,64.29L424.56,66.28L437,67.11L444.85,66.58L458.07,63.76L461.75,62.56L471.36,58.7L477.95,55.55L509.67,40.07L509.75,40.04L518.63,37.43L524.52,36.51L533.69,36.59L536.13,36.94L540.03,37.79L545.3,39.5L552.35,42.76L556.06,44.89L565.91,51.73L567.33,52.84L586.53,69.68L593.36,76.05L608.47,89.68L619.53,98.76L624.91,102.81L638.63,111.96L644.11,115.14L663.17,124.29L687,132.06L701.69,135.14L740.08,138.9L759.28,139.76L836.05,143.08" style="vector-effect: non-scaling-stroke; fill: none; stroke: rgb(105, 179, 162); stroke-opacity: 1; stroke-width: 2px; opacity: 1;"></path></g><g class="points"></g><g class="text"></g></g><g class="trace scatter traceb2edd307-607e-4376-8acb-bf13cc63af58" style="stroke-miterlimit: 2; opacity: 1;"><g class="fills"></g><g class="errorbars"></g><g class="lines"><path class="js-line" d="M390.85,146.73L390.85,57.27" style="vector-effect: non-scaling-stroke; fill: none; stroke: rgb(105, 179, 162); stroke-opacity: 1; stroke-width: 2px; opacity: 1; stroke-dasharray: 9px, 9px;"></path></g><g class="points"><path class="point" d="M3,0A3,3 0 1,1 0,-3A3,3 0 0,1 3,0Z" style="opacity: 1; stroke-width: 0px; fill: rgb(105, 179, 162); fill-opacity: 1;" transform="translate(390.85,146.73)"></path><path class="point" d="M3,0A3,3 0 1,1 0,-3A3,3 0 0,1 3,0Z" style="opacity: 1; stroke-width: 0px; fill: rgb(105, 179, 162); fill-opacity: 1;" transform="translate(390.85,57.27)"></path></g><g class="text"></g></g><g class="trace scatter trace3290ef47-5694-48cd-9b68-9486dccd2a6b" style="stroke-miterlimit: 2; opacity: 1;"><g class="fills"></g><g class="errorbars"></g><g class="lines"><path class="js-line" d="M392.08,146.73L392.08,57.67" style="vector-effect: non-scaling-stroke; fill: none; stroke: rgb(105, 179, 162); stroke-opacity: 1; stroke-width: 2px; opacity: 1;"></path></g><g class="points"></g><g class="text"></g></g></g></g><g class="overplot"></g><path class="xlines-above crisp" d="M0,0" style="fill: none;"></path><path class="ylines-above crisp" d="M0,0" style="fill: none;"></path><g class="overlines-above"></g><g class="xaxislayer-above"><g class="x2tick"><text data-math="N" data-unformatted="40" style='font-family: "Open Sans", verdana, arial, sans-serif; font-size: 12px; fill: rgb(42, 63, 95); fill-opacity: 1; white-space: pre; opacity: 1;' text-anchor="middle" transform="translate(109.09,0)" x="0" y="333">40</text></g><g class="x2tick"><text data-math="N" data-unformatted="50" style='font-family: "Open Sans", verdana, arial, sans-serif; font-size: 12px; fill: rgb(42, 63, 95); fill-opacity: 1; white-space: pre; opacity: 1;' text-anchor="middle" transform="translate(230.96,0)" x="0" y="333">50</text></g><g class="x2tick"><text data-math="N" data-unformatted="60" style='font-family: "Open Sans", verdana, arial, sans-serif; font-size: 12px; fill: rgb(42, 63, 95); fill-opacity: 1; white-space: pre; opacity: 1;' text-anchor="middle" transform="translate(352.83,0)" x="0" y="333">60</text></g><g class="x2tick"><text data-math="N" data-unformatted="70" style='font-family: "Open Sans", verdana, arial, sans-serif; font-size: 12px; fill: rgb(42, 63, 95); fill-opacity: 1; white-space: pre; opacity: 1;' text-anchor="middle" transform="translate(474.7,0)" x="0" y="333">70</text></g><g class="x2tick"><text data-math="N" data-unformatted="80" style='font-family: "Open Sans", verdana, arial, sans-serif; font-size: 12px; fill: rgb(42, 63, 95); fill-opacity: 1; white-space: pre; opacity: 1;' text-anchor="middle" transform="translate(596.57,0)" x="0" y="333">80</text></g><g class="x2tick"><text data-math="N" data-unformatted="90" style='font-family: "Open Sans", verdana, arial, sans-serif; font-size: 12px; fill: rgb(42, 63, 95); fill-opacity: 1; white-space: pre; opacity: 1;' text-anchor="middle" transform="translate(718.44,0)" x="0" y="333">90</text></g></g><g class="yaxislayer-above"><g class="y2tick"><text data-math="N" data-unformatted="0" style='font-family: "Open Sans", verdana, arial, sans-serif; font-size: 12px; fill: rgb(42, 63, 95); fill-opacity: 1; white-space: pre; opacity: 1;' text-anchor="end" transform="translate(0,308.3299999999999)" x="79" y="4.199999999999999">0</text></g><g class="y2tick"><text data-math="N" data-unformatted="0.01" style='font-family: "Open Sans", verdana, arial, sans-serif; font-size: 12px; fill: rgb(42, 63, 95); fill-opacity: 1; white-space: pre; opacity: 1;' text-anchor="end" transform="translate(0,271.96)" x="79" y="4.199999999999999">0.01</text></g><g class="y2tick"><text data-math="N" data-unformatted="0.02" style='font-family: "Open Sans", verdana, arial, sans-serif; font-size: 12px; fill: rgb(42, 63, 95); fill-opacity: 1; white-space: pre; opacity: 1;' text-anchor="end" transform="translate(0,235.58999999999997)" x="79" y="4.199999999999999">0.02</text></g><g class="y2tick"><text data-math="N" data-unformatted="0.03" style='font-family: "Open Sans", verdana, arial, sans-serif; font-size: 12px; fill: rgb(42, 63, 95); fill-opacity: 1; white-space: pre; opacity: 1;' text-anchor="end" transform="translate(0,199.22999999999996)" x="79" y="4.199999999999999">0.03</text></g><g class="y2tick"><text data-math="N" data-unformatted="0.04" style='font-family: "Open Sans", verdana, arial, sans-serif; font-size: 12px; fill: rgb(42, 63, 95); fill-opacity: 1; white-space: pre; opacity: 1;' text-anchor="end" transform="translate(0,162.85999999999996)" x="79" y="4.199999999999999">0.04</text></g></g><g class="overaxes-above"></g></g></g><g class="polarlayer"></g><g class="smithlayer"></g><g class="ternarylayer"></g><g class="geolayer"></g><g class="funnelarealayer"></g><g class="pielayer"></g><g class="iciclelayer"></g><g class="treemaplayer"></g><g class="sunburstlayer"></g><g class="glimages"></g>
</g>
<g transform="translate(0.0, 0.0)">
<defs id="topdefs-d010ae"><g class="clips"></g><clippath id="legendd010ae"><rect height="143" width="127" x="0" y="0"></rect></clippath></defs><g class="indicatorlayer"></g><g class="layer-above"><g class="imagelayer"></g><g class="shapelayer"></g></g><g class="infolayer"><g class="legend" pointer-events="all" transform="translate(780.74,188)"><rect class="bg" height="143" shape-rendering="crispEdges" style="stroke: rgb(68, 68, 68); stroke-opacity: 1; fill: rgb(255, 255, 255); fill-opacity: 1; stroke-width: 0px;" width="127" x="0" y="0"></rect><g class="scrollbox" clip-path="url(#legendd010ae)" transform=""><text class="legendtitletext" data-math="N" data-unformatted="Legend" style='font-family: "Open Sans", verdana, arial, sans-serif; font-size: 14px; fill: rgb(42, 63, 95); fill-opacity: 1; white-space: pre;' text-anchor="start" x="2" y="18.2">Legend</text><g class="groups"><g class="traces" style="opacity: 1;" transform="translate(0,32.7)"><text class="legendtext" data-math="N" data-unformatted="Train Dataset" style='font-family: "Open Sans", verdana, arial, sans-serif; font-size: 12px; fill: rgb(42, 63, 95); fill-opacity: 1; white-space: pre;' text-anchor="start" x="40" y="4.680000000000001">Train Dataset</text><g class="layers"><g class="legendfill"><path class="js-fill" d="M5,-2h30v6h-30z" style="stroke-width: 0; fill: rgb(0, 0, 139); fill-opacity: 0.5;"></path></g><g class="legendlines"><path class="js-line" d="M5,-2h30" style="fill: none; stroke: rgb(0, 0, 139); stroke-opacity: 1; stroke-width: 2px;"></path></g><g class="legendsymbols"><g class="legendpoints"></g></g></g><rect class="legendtoggle" height="19" pointer-events="all" style="cursor: pointer; fill: rgb(0, 0, 0); fill-opacity: 0;" width="121.234375" x="0" y="-9.5"></rect></g><g class="traces" style="opacity: 1;" transform="translate(0,51.7)"><text class="legendtext" data-math="N" data-unformatted="Train Mean" style='font-family: "Open Sans", verdana, arial, sans-serif; font-size: 12px; fill: rgb(42, 63, 95); fill-opacity: 1; white-space: pre;' text-anchor="start" x="40" y="4.680000000000001">Train Mean</text><g class="layers" style="opacity: 1;"><g class="legendfill"></g><g class="legendlines"><path class="js-line" d="M5,0h30" style="fill: none; stroke: rgb(0, 0, 139); stroke-opacity: 1; stroke-dasharray: 9px, 9px; stroke-width: 2px;"></path></g><g class="legendsymbols"><g class="legendpoints"><path class="scatterpts" d="M3,0A3,3 0 1,1 0,-3A3,3 0 0,1 3,0Z" style="opacity: 1; stroke-width: 0px; fill: rgb(0, 0, 139); fill-opacity: 1;" transform="translate(20,0)"></path></g></g></g><rect class="legendtoggle" height="19" pointer-events="all" style="cursor: pointer; fill: rgb(0, 0, 0); fill-opacity: 0;" width="121.234375" x="0" y="-9.5"></rect></g><g class="traces" style="opacity: 1;" transform="translate(0,70.7)"><text class="legendtext" data-math="N" data-unformatted="Train Median" style='font-family: "Open Sans", verdana, arial, sans-serif; font-size: 12px; fill: rgb(42, 63, 95); fill-opacity: 1; white-space: pre;' text-anchor="start" x="40" y="4.680000000000001">Train Median</text><g class="layers" style="opacity: 1;"><g class="legendfill"></g><g class="legendlines"><path class="js-line" d="M5,0h30" style="fill: none; stroke: rgb(0, 0, 139); stroke-opacity: 1; stroke-width: 2px;"></path></g><g class="legendsymbols"><g class="legendpoints"></g></g></g><rect class="legendtoggle" height="19" pointer-events="all" style="cursor: pointer; fill: rgb(0, 0, 0); fill-opacity: 0;" width="121.234375" x="0" y="-9.5"></rect></g><g class="traces" style="opacity: 1;" transform="translate(0,89.7)"><text class="legendtext" data-math="N" data-unformatted="Test Dataset" style='font-family: "Open Sans", verdana, arial, sans-serif; font-size: 12px; fill: rgb(42, 63, 95); fill-opacity: 1; white-space: pre;' text-anchor="start" x="40" y="4.680000000000001">Test Dataset</text><g class="layers"><g class="legendfill"><path class="js-fill" d="M5,-2h30v6h-30z" style="stroke-width: 0; fill: rgb(105, 179, 162); fill-opacity: 0.5;"></path></g><g class="legendlines"><path class="js-line" d="M5,-2h30" style="fill: none; stroke: rgb(105, 179, 162); stroke-opacity: 1; stroke-width: 2px;"></path></g><g class="legendsymbols"><g class="legendpoints"></g></g></g><rect class="legendtoggle" height="19" pointer-events="all" style="cursor: pointer; fill: rgb(0, 0, 0); fill-opacity: 0;" width="121.234375" x="0" y="-9.5"></rect></g><g class="traces" style="opacity: 1;" transform="translate(0,108.7)"><text class="legendtext" data-math="N" data-unformatted="Test Mean" style='font-family: "Open Sans", verdana, arial, sans-serif; font-size: 12px; fill: rgb(42, 63, 95); fill-opacity: 1; white-space: pre;' text-anchor="start" x="40" y="4.680000000000001">Test Mean</text><g class="layers" style="opacity: 1;"><g class="legendfill"></g><g class="legendlines"><path class="js-line" d="M5,0h30" style="fill: none; stroke: rgb(105, 179, 162); stroke-opacity: 1; stroke-dasharray: 9px, 9px; stroke-width: 2px;"></path></g><g class="legendsymbols"><g class="legendpoints"><path class="scatterpts" d="M3,0A3,3 0 1,1 0,-3A3,3 0 0,1 3,0Z" style="opacity: 1; stroke-width: 0px; fill: rgb(105, 179, 162); fill-opacity: 1;" transform="translate(20,0)"></path></g></g></g><rect class="legendtoggle" height="19" pointer-events="all" style="cursor: pointer; fill: rgb(0, 0, 0); fill-opacity: 0;" width="121.234375" x="0" y="-9.5"></rect></g><g class="traces" style="opacity: 1;" transform="translate(0,127.7)"><text class="legendtext" data-math="N" data-unformatted="Test Median" style='font-family: "Open Sans", verdana, arial, sans-serif; font-size: 12px; fill: rgb(42, 63, 95); fill-opacity: 1; white-space: pre;' text-anchor="start" x="40" y="4.680000000000001">Test Median</text><g class="layers" style="opacity: 1;"><g class="legendfill"></g><g class="legendlines"><path class="js-line" d="M5,0h30" style="fill: none; stroke: rgb(105, 179, 162); stroke-opacity: 1; stroke-width: 2px;"></path></g><g class="legendsymbols"><g class="legendpoints"></g></g></g><rect class="legendtoggle" height="19" pointer-events="all" style="cursor: pointer; fill: rgb(0, 0, 0); fill-opacity: 0;" width="121.234375" x="0" y="-9.5"></rect></g></g></g><rect class="scrollbar" height="0" rx="20" ry="3" style="fill: rgb(128, 139, 164); fill-opacity: 1;" width="0" x="0" y="0"></rect></g><g class="g-gtitle"><text class="gtitle" data-math="N" data-unformatted="RMS Contrast" dy="0em" style='font-family: "Open Sans", verdana, arial, sans-serif; font-size: 17px; fill: rgb(42, 63, 95); opacity: 1; font-weight: normal; white-space: pre;' text-anchor="middle" x="460" y="50">RMS Contrast</text></g><g class="g-xtitle"></g><g class="g-x2title"><text class="x2title" data-math="N" data-unformatted="RMS Contrast" style='font-family: "Open Sans", verdana, arial, sans-serif; font-size: 14px; fill: rgb(42, 63, 95); opacity: 1; font-weight: normal; white-space: pre;' text-anchor="middle" x="423.5" y="360.8">RMS Contrast</text></g><g class="g-ytitle"></g><g class="g-y2title"><text class="y2title" data-math="N" data-unformatted="Probability Density" style='font-family: "Open Sans", verdana, arial, sans-serif; font-size: 14px; fill: rgb(42, 63, 95); opacity: 1; font-weight: normal; white-space: pre;' text-anchor="middle" transform="rotate(-90,26.934375000000003,240.79999999999995)" x="26.934375000000003" y="240.79999999999995">Probability Density</text></g><g class="annotation" data-index="0" style="opacity: 1;"><g class="annotation-text-g" transform="rotate(0,423.5,88.49999999999999)"><g class="cursor-pointer" transform="translate(284,77)"><rect class="bg" height="22" style="stroke-width: 1px; stroke: rgb(0, 0, 0); stroke-opacity: 0; fill: rgb(0, 0, 0); fill-opacity: 0;" width="279" x="0.5" y="0.5"></rect><text class="annotation-text" data-math="N" data-unformatted="Drift Score (Kolmogorov-Smirnov)" style='font-family: "Open Sans", verdana, arial, sans-serif; font-size: 16px; fill: rgb(42, 63, 95); fill-opacity: 1; white-space: pre;' text-anchor="middle" x="139.8984375" y="18">Drift Score (Kolmogorov-Smirnov)</text></g></g></g><g class="annotation" data-index="1" style="opacity: 1;"><g class="annotation-text-g" transform="rotate(0,423.5,150.09999999999997)"><g class="cursor-pointer" transform="translate(357,139)"><rect class="bg" height="22" style="stroke-width: 1px; stroke: rgb(0, 0, 0); stroke-opacity: 0; fill: rgb(0, 0, 0); fill-opacity: 0;" width="133" x="0.5" y="0.5"></rect><text class="annotation-text" data-math="N" data-unformatted="Distribution Plot" style='font-family: "Open Sans", verdana, arial, sans-serif; font-size: 16px; fill: rgb(42, 63, 95); fill-opacity: 1; white-space: pre;' text-anchor="middle" x="66.4453125" y="18">Distribution Plot</text></g></g></g></g><g class="menulayer"></g><g class="zoomlayer"></g>
</g>
<g transform="translate(0.0, 0.0)">
<g class="hoverlayer"></g>
</g>
</svg>