<svg xmlns="http://www.w3.org/2000/svg" viewBox="0 0 920.0 400.0" style="overflow: hidden;">
<g transform="translate(0.0, 0.0)">
<defs id="defs-c65d69"><g class="clips"><clippath class="plotclip" id="clipc65d69xyplot"><rect height="17.599999999999966" width="687"></rect></clippath><clippath class="plotclip" id="clipc65d69x2y2plot"><rect height="158.4" width="687"></rect></clippath><clippath class="axesclip" id="clipc65d69x"><rect height="400" width="687" x="80" y="0"></rect></clippath><clippath class="axesclip" id="clipc65d69y"><rect height="17.599999999999966" width="920" x="0" y="100"></rect></clippath><clippath class="axesclip" id="clipc65d69xy"><rect height="17.599999999999966" width="687" x="80" y="100"></rect></clippath><clippath class="axesclip" id="clipc65d69y2"><rect height="158.4" width="920" x="0" y="161.59999999999997"></rect></clippath><clippath class="axesclip" id="clipc65d69xy2"><rect height="158.4" width="687" x="80" y="161.59999999999997"></rect></clippath><clippath class="axesclip" id="clipc65d69x2"><rect height="400" width="687" x="80" y="0"></rect></clippath><clippath class="axesclip" id="clipc65d69x2y"><rect height="17.599999999999966" width="687" x="80" y="100"></rect></clippath><clippath class="axesclip" id="clipc65d69x2y2"><rect height="158.4" width="687" x="80" y="161.59999999999997"></rect></clippath></g><g class="gradients"></g><g class="patterns"></g></defs><g class="bglayer"><rect class="bg" height="17.599999999999966" style="fill: rgb(229, 236, 246); fill-opacity: 1; stroke-width: 0;" width="687" x="80" y="100"></rect><rect class="bg" height="158.4" style="fill: rgb(229, 236, 246); fill-opacity: 1; stroke-width: 0;" width="687" x="80" y="161.59999999999997"></rect></g><g class="draglayer cursor-crosshair"><g class="xy"><rect class="nsewdrag drag cursor-pointer" data-subplot="xy" height="17.599999999999966" style="fill: transparent; stroke-width: 0; pointer-events: all;" width="687" x="80" y="100"></rect><rect class="nwdrag drag cursor-pointer" data-subplot="xy" height="20" style="fill: transparent; stroke-width: 0; pointer-events: none;" width="20" x="60" y="80"></rect><rect class="nedrag drag cursor-pointer" data-subplot="xy" height="20" style="fill: transparent; stroke-width: 0; pointer-events: none;" width="20" x="767" y="80"></rect><rect class="swdrag drag cursor-pointer" data-subplot="xy" height="20" style="fill: transparent; stroke-width: 0; pointer-events: none;" width="20" x="60" y="117.59999999999997"></rect><rect class="sedrag drag cursor-pointer" data-subplot="xy" height="20" style="fill: transparent; stroke-width: 0; pointer-events: none;" width="20" x="767" y="117.59999999999997"></rect><rect class="ewdrag drag cursor-pointer" data-subplot="xy" height="20" style="fill: transparent; stroke-width: 0; pointer-events: none;" width="549.6" x="148.7" y="118.09999999999997"></rect><rect class="wdrag drag cursor-pointer" data-subplot="xy" height="20" style="fill: transparent; stroke-width: 0; pointer-events: none;" width="68.7" x="80" y="118.09999999999997"></rect><rect class="edrag drag cursor-pointer" data-subplot="xy" height="20" style="fill: transparent; stroke-width: 0; pointer-events: none;" width="68.7" x="698.3000000000001" y="118.09999999999997"></rect><rect class="nsdrag drag cursor-pointer" data-subplot="xy" height="14.079999999999973" style="fill: transparent; stroke-width: 0; pointer-events: none;" width="20" x="59.5" y="101.75999999999999"></rect><rect class="sdrag drag cursor-pointer" data-subplot="xy" height="1.7599999999999967" style="fill: transparent; stroke-width: 0; pointer-events: none;" width="20" x="59.5" y="115.83999999999997"></rect><rect class="ndrag drag cursor-pointer" data-subplot="xy" height="1.7599999999999967" style="fill: transparent; stroke-width: 0; pointer-events: none;" width="20" x="59.5" y="100"></rect></g><g class="x2y2"><rect class="nsewdrag drag cursor-ew-resize" data-subplot="x2y2" height="158.4" style="fill: transparent; stroke-width: 0; pointer-events: all;" width="687" x="80" y="161.59999999999997"></rect><rect class="nwdrag drag cursor-w-resize" data-subplot="x2y2" height="20" style="fill: transparent; stroke-width: 0; pointer-events: all;" width="20" x="60" y="141.59999999999997"></rect><rect class="nedrag drag cursor-e-resize" data-subplot="x2y2" height="20" style="fill: transparent; stroke-width: 0; pointer-events: all;" width="20" x="767" y="141.59999999999997"></rect><rect class="swdrag drag cursor-w-resize" data-subplot="x2y2" height="20" style="fill: transparent; stroke-width: 0; pointer-events: all;" width="20" x="60" y="320"></rect><rect class="sedrag drag cursor-e-resize" data-subplot="x2y2" height="20" style="fill: transparent; stroke-width: 0; pointer-events: all;" width="20" x="767" y="320"></rect><rect class="ewdrag drag cursor-ew-resize" data-subplot="x2y2" height="20" style="fill: transparent; stroke-width: 0; pointer-events: all;" width="549.6" x="148.7" y="320.5"></rect><rect class="wdrag drag cursor-w-resize" data-subplot="x2y2" height="20" style="fill: transparent; stroke-width: 0; pointer-events: all;" width="68.7" x="80" y="320.5"></rect><rect class="edrag drag cursor-e-resize" data-subplot="x2y2" height="20" style="fill: transparent; stroke-width: 0; pointer-events: all;" width="68.7" x="698.3000000000001" y="320.5"></rect><rect class="nsdrag drag cursor-pointer" data-subplot="x2y2" height="126.72000000000001" style="fill: transparent; stroke-width: 0; pointer-events: none;" width="20" x="59.5" y="177.43999999999997"></rect><rect class="sdrag drag cursor-pointer" data-subplot="x2y2" height="15.840000000000002" style="fill: transparent; stroke-width: 0; pointer-events: none;" width="20" x="59.5" y="304.15999999999997"></rect><rect class="ndrag drag cursor-pointer" data-subplot="x2y2" height="15.840000000000002" style="fill: transparent; stroke-width: 0; pointer-events: none;" width="20" x="59.5" y="161.59999999999997"></rect></g></g><g class="layer-below"><g class="imagelayer"></g><g class="shapelayer"></g></g><g class="cartesianlayer"><g class="subplot xy"><g class="layer-subplot"><g class="shapelayer"></g><g class="imagelayer"></g></g><g class="minor-gridlayer"><g class="x"></g><g class="y"></g></g><g class="gridlayer"><g class="x"></g><g class="y"></g></g><g class="zerolinelayer"><path class="xzl zl crisp" d="M0,100v17.599999999999966" style="stroke: rgb(255, 255, 255); stroke-opacity: 1; stroke-width: 2px;" transform="translate(80,0)"></path></g><path class="xlines-below"></path><path class="ylines-below"></path><g class="overlines-below"></g><g class="xaxislayer-below"></g><g class="yaxislayer-below"></g><g class="overaxes-below"></g><g class="plot" clip-path="url(#clipc65d69xyplot)" transform="translate(80,100)"><g class="barlayer mlayer"><g class="trace bars" style="opacity: 1;"><g class="points"><g class="point"><path d="M0,15.84V1.76H133.58V15.84Z" style="vector-effect: non-scaling-stroke; opacity: 1; stroke-width: 0.5px; fill: rgb(1, 184, 170); fill-opacity: 1; stroke: rgb(229, 236, 246); stroke-opacity: 1;"></path></g></g></g></g></g><g class="overplot"></g><path class="xlines-above crisp" d="M80,118.09999999999997H767" style="fill: none; stroke-width: 1px; stroke: rgb(0, 0, 0); stroke-opacity: 1;"></path><path class="ylines-above crisp" d="M0,0" style="fill: none;"></path><g class="overlines-above"></g><g class="xaxislayer-above"><g class="xtick"><text data-math="N" data-unformatted="0" style='font-family: "Open Sans", verdana, arial, sans-serif; font-size: 12px; fill: rgb(42, 63, 95); fill-opacity: 1; white-space: pre; opacity: 1;' text-anchor="middle" transform="translate(80,0)" x="0" y="132.99999999999997">0</text></g><g class="xtick"><text data-math="N" data-unformatted="0.05" style='font-family: "Open Sans", verdana, arial, sans-serif; font-size: 12px; fill: rgb(42, 63, 95); fill-opacity: 1; white-space: pre; opacity: 1;' text-anchor="middle" transform="translate(165.88,0)" x="0" y="132.99999999999997">0.05</text></g><g class="xtick"><text data-math="N" data-unformatted="0.1" style='font-family: "Open Sans", verdana, arial, sans-serif; font-size: 12px; fill: rgb(42, 63, 95); fill-opacity: 1; white-space: pre; opacity: 1;' text-anchor="middle" transform="translate(251.75,0)" x="0" y="132.99999999999997">0.1</text></g><g class="xtick"><text data-math="N" data-unformatted="0.15" style='font-family: "Open Sans", verdana, arial, sans-serif; font-size: 12px; fill: rgb(42, 63, 95); fill-opacity: 1; white-space: pre; opacity: 1;' text-anchor="middle" transform="translate(337.63,0)" x="0" y="132.99999999999997">0.15</text></g><g class="xtick"><text data-math="N" data-unformatted="0.2" style='font-family: "Open Sans", verdana, arial, sans-serif; font-size: 12px; fill: rgb(42, 63, 95); fill-opacity: 1; white-space: pre; opacity: 1;' text-anchor="middle" transform="translate(423.5,0)" x="0" y="132.99999999999997">0.2</text></g><g class="xtick"><text data-math="N" data-unformatted="0.25" style='font-family: "Open Sans", verdana, arial, sans-serif; font-size: 12px; fill: rgb(42, 63, 95); fill-opacity: 1; white-space: pre; opacity: 1;' text-anchor="middle" transform="translate(509.38,0)" x="0" y="132.99999999999997">0.25</text></g><g class="xtick"><text data-math="N" data-unformatted="0.3" style='font-family: "Open Sans", verdana, arial, sans-serif; font-size: 12px; fill: rgb(42, 63, 95); fill-opacity: 1; white-space: pre; opacity: 1;' text-anchor="middle" transform="translate(595.25,0)" x="0" y="132.99999999999997">0.3</text></g><g class="xtick"><text data-math="N" data-unformatted="0.35" style='font-family: "Open Sans", verdana, arial, sans-serif; font-size: 12px; fill: rgb(42, 63, 95); fill-opacity: 1; white-space: pre; opacity: 1;' text-anchor="middle" transform="translate(681.13,0)" x="0" y="132.99999999999997">0.35</text></g><g class="xtick"><text data-math="N" data-unformatted="0.4" style='font-family: "Open Sans", verdana, arial, sans-serif; font-size: 12px; fill: rgb(42, 63, 95); fill-opacity: 1; white-space: pre; opacity: 1;' text-anchor="middle" transform="translate(767,0)" x="0" y="132.99999999999997">0.4</text></g></g><g class="yaxislayer-above"></g><g class="overaxes-above"></g></g><g class="subplot x2y2"><g class="layer-subplot"><g class="shapelayer"></g><g class="imagelayer"></g></g><g class="minor-gridlayer"><g class="x2"></g><g class="y2"></g></g><g class="gridlayer"><g class="x2"><path class="x2grid crisp" d="M0,161.59999999999997v158.4" style="stroke: rgb(255, 255, 255); stroke-opacity: 1; stroke-width: 1px;" transform="translate(84.34,0)"></path><path class="x2grid crisp" d="M0,161.59999999999997v158.4" style="stroke: rgb(255, 255, 255); stroke-opacity: 1; stroke-width: 1px;" transform="translate(220.82,0)"></path><path class="x2grid crisp" d="M0,161.59999999999997v158.4" style="stroke: rgb(255, 255, 255); stroke-opacity: 1; stroke-width: 1px;" transform="translate(357.31,0)"></path><path class="x2grid crisp" d="M0,161.59999999999997v158.4" style="stroke: rgb(255, 255, 255); stroke-opacity: 1; stroke-width: 1px;" transform="translate(493.79,0)"></path><path class="x2grid crisp" d="M0,161.59999999999997v158.4" style="stroke: rgb(255, 255, 255); stroke-opacity: 1; stroke-width: 1px;" transform="translate(630.27,0)"></path></g><g class="y2"><path class="y2grid crisp" d="M80,0h687" style="stroke: rgb(255, 255, 255); stroke-opacity: 1; stroke-width: 1px;" transform="translate(0,272.76)"></path><path class="y2grid crisp" d="M80,0h687" style="stroke: rgb(255, 255, 255); stroke-opacity: 1; stroke-width: 1px;" transform="translate(0,237.19999999999996)"></path><path class="y2grid crisp" d="M80,0h687" style="stroke: rgb(255, 255, 255); stroke-opacity: 1; stroke-width: 1px;" transform="translate(0,201.62999999999997)"></path><path class="y2grid crisp" d="M80,0h687" style="stroke: rgb(255, 255, 255); stroke-opacity: 1; stroke-width: 1px;" transform="translate(0,166.05999999999997)"></path></g></g><g class="zerolinelayer"><path class="y2zl zl crisp" d="M80,0h687" style="stroke: rgb(255, 255, 255); stroke-opacity: 1; stroke-width: 2px;" transform="translate(0,308.3299999999999)"></path></g><path class="xlines-below"></path><path class="ylines-below"></path><g class="overlines-below"></g><g class="xaxislayer-below"></g><g class="yaxislayer-below"></g><g class="overaxes-below"></g><g class="plot" clip-path="url(#clipc65d69x2y2plot)" transform="translate(80,161.59999999999997)"><g class="scatterlayer mlayer"><g class="trace scatter trace3c791f50-b25c-480a-a83b-88a96a37b3d3" style="stroke-miterlimit: 2;"><g class="fills"><g><path class="js-fill" d="M719.7,146.73L-18.77,146.73L-18.77,129.39L0,118.66L11.37,111.15L43.48,89.73L50.86,85.66L58.41,82.21L71.66,78.4L80.38,77.78L86.27,78.29L93.51,79.96L100.56,82.63L102.13,83.35L116.77,91.94L147.01,113.04L152.11,116.02L162.08,120.84L172.97,124.41L177.15,125.3L192.22,126.49L207.29,124.85L222.33,120.61L237.43,113.6L250.75,105.04L259.77,98.09L267.58,91.44L314.79,48.15L327.86,37.4L342.93,26.3L346.61,23.84L359.72,16.15L365.22,13.52L373.07,10.54L376.67,9.52L386.2,8L388.14,7.92L404.63,10.44L406.07,10.93L415.69,15.19L418.28,16.59L424.66,20.41L433.35,26.18L448.43,36.28L463.5,44.48L470.4,47.2L478.57,49.55L493.64,51.99L499.13,52.56L517.27,55.13L519.57,55.66L530.25,59.09L536.21,61.78L547.19,68.22L553.92,73.04L568.99,85.41L576.58,91.95L588.5,101.73L599.13,109.2L614.2,116.74L628.59,120.33L629.28,120.42L644.35,121.2L674.49,121.24L678.28,121.6L689.56,123.4L704.63,127.36L719.7,132.28" style="fill: rgb(0, 0, 139); fill-opacity: 0.5; stroke-width: 0;"></path></g></g><g class="errorbars"></g><g class="lines"><path class="js-line" d="M-18.77,129.39L0,118.66L11.37,111.15L43.48,89.73L50.86,85.66L58.41,82.21L71.66,78.4L80.38,77.78L86.27,78.29L93.51,79.96L100.56,82.63L102.13,83.35L116.77,91.94L147.01,113.04L152.11,116.02L162.08,120.84L172.97,124.41L177.15,125.3L192.22,126.49L207.29,124.85L222.33,120.61L237.43,113.6L250.75,105.04L259.77,98.09L267.58,91.44L314.79,48.15L327.86,37.4L342.93,26.3L346.61,23.84L359.72,16.15L365.22,13.52L373.07,10.54L376.67,9.52L386.2,8L388.14,7.92L404.63,10.44L406.07,10.93L415.69,15.19L418.28,16.59L424.66,20.41L433.35,26.18L448.43,36.28L463.5,44.48L470.4,47.2L478.57,49.55L493.64,51.99L499.13,52.56L517.27,55.13L519.57,55.66L530.25,59.09L536.21,61.78L547.19,68.22L553.92,73.04L568.99,85.41L576.58,91.95L588.5,101.73L599.13,109.2L614.2,116.74L628.59,120.33L629.28,120.42L644.35,121.2L674.49,121.24L678.28,121.6L689.56,123.4L704.63,127.36L719.7,132.28" style="vector-effect: non-scaling-stroke; fill: none; stroke: rgb(0, 0, 139); stroke-opacity: 1; stroke-width: 2px; opacity: 1;"></path></g><g class="points"></g><g class="text"></g></g><g class="trace scatter tracee63c9fda-1f13-4b1d-be74-287d091e9603" style="stroke-miterlimit: 2; opacity: 1;"><g class="fills"></g><g class="errorbars"></g><g class="lines"><path class="js-line" d="M359.68,146.73L359.68,16.17" style="vector-effect: non-scaling-stroke; fill: none; stroke: rgb(0, 0, 139); stroke-opacity: 1; stroke-width: 2px; opacity: 1; stroke-dasharray: 9px, 9px;"></path></g><g class="points"><path class="point" d="M3,0A3,3 0 1,1 0,-3A3,3 0 0,1 3,0Z" style="opacity: 1; stroke-width: 0px; fill: rgb(0, 0, 139); fill-opacity: 1;" transform="translate(359.68,146.73)"></path><path class="point" d="M3,0A3,3 0 1,1 0,-3A3,3 0 0,1 3,0Z" style="opacity: 1; stroke-width: 0px; fill: rgb(0, 0, 139); fill-opacity: 1;" transform="translate(359.68,16.17)"></path></g><g class="text"></g></g><g class="trace scatter traced977a551-282c-4c30-a786-7458f2dc7574" style="stroke-miterlimit: 2; opacity: 1;"><g class="fills"></g><g class="errorbars"></g><g class="lines"><path class="js-line" d="M380.48,146.73L380.48,8.7" style="vector-effect: non-scaling-stroke; fill: none; stroke: rgb(0, 0, 139); stroke-opacity: 1; stroke-width: 2px; opacity: 1;"></path></g><g class="points"></g><g class="text"></g></g><g class="trace scatter tracee7ae0433-b34a-4a91-8b05-6b07e8bbd726" style="stroke-miterlimit: 2;"><g class="fills"><g><path class="js-fill" d="M719.7,146.73L-18.77,146.73L-18.77,123.59L26.44,104.6L33.36,102.25L50.86,97.59L56.58,96.5L71.66,94.64L80.38,94.14L102.13,94.19L116.77,94.83L192.22,99.06L202.56,99.24L228.76,99.05L237.43,98.61L252.51,96.82L259.77,95.24L267.58,92.86L282.65,85.93L292.68,79.52L297.72,75.8L312.19,63.61L312.79,63.08L351.43,28.28L356.78,24.28L367.57,17.52L369.51,16.52L380.48,12.22L380.48,12.22L380.66,12.17L388.14,10.75L401.59,11.36L410.67,14L411.97,14.51L422.95,19.88L424.66,20.86L448.43,35.75L463.5,43.79L470.4,46.64L478.57,49.36L510.67,58.15L517.27,60.78L527.71,66.16L530.25,67.7L538.85,73.52L547.19,79.92L576.58,103.88L584.06,109.21L588.5,112.07L599.13,117.84L614.2,123.23L628.59,125.46L629.28,125.5L644.35,125.37L678.28,122.48L687,122.44L689.56,122.53L704.63,124.18L719.7,127.48" style="fill: rgb(105, 179, 162); fill-opacity: 0.5; stroke-width: 0;"></path></g></g><g class="errorbars"></g><g class="lines"><path class="js-line" d="M-18.77,123.59L26.44,104.6L33.36,102.25L50.86,97.59L56.58,96.5L71.66,94.64L80.38,94.14L102.13,94.19L116.77,94.83L192.22,99.06L202.56,99.24L228.76,99.05L237.43,98.61L252.51,96.82L259.77,95.24L267.58,92.86L282.65,85.93L292.68,79.52L297.72,75.8L312.19,63.61L312.79,63.08L351.43,28.28L356.78,24.28L367.57,17.52L369.51,16.52L380.48,12.22L380.48,12.22L380.66,12.17L388.14,10.75L401.59,11.36L410.67,14L411.97,14.51L422.95,19.88L424.66,20.86L448.43,35.75L463.5,43.79L470.4,46.64L478.57,49.36L510.67,58.15L517.27,60.78L527.71,66.16L530.25,67.7L538.85,73.52L547.19,79.92L576.58,103.88L584.06,109.21L588.5,112.07L599.13,117.84L614.2,123.23L628.59,125.46L629.28,125.5L644.35,125.37L678.28,122.48L687,122.44L689.56,122.53L704.63,124.18L719.7,127.48" style="vector-effect: non-scaling-stroke; fill: none; stroke: rgb(105, 179, 162); stroke-opacity: 1; stroke-width: 2px; opacity: 1;"></path></g><g class="points"></g><g class="text"></g></g><g class="trace scatter trace2a47b2cb-9d24-45ad-bcc9-8a66306a966f" style="stroke-miterlimit: 2; opacity: 1;"><g class="fills"></g><g class="errorbars"></g><g class="lines"><path class="js-line" d="M351.43,146.73L351.43,28.28" style="vector-effect: non-scaling-stroke; fill: none; stroke: rgb(105, 179, 162); stroke-opacity: 1; stroke-width: 2px; opacity: 1; stroke-dasharray: 9px, 9px;"></path></g><g class="points"><path class="point" d="M3,0A3,3 0 1,1 0,-3A3,3 0 0,1 3,0Z" style="opacity: 1; stroke-width: 0px; fill: rgb(105, 179, 162); fill-opacity: 1;" transform="translate(351.43,146.73)"></path><path class="point" d="M3,0A3,3 0 1,1 0,-3A3,3 0 0,1 3,0Z" style="opacity: 1; stroke-width: 0px; fill: rgb(105, 179, 162); fill-opacity: 1;" transform="translate(351.43,28.28)"></path></g><g class="text"></g></g><g class="trace scatter trace35b1f90e-03be-4d2b-a159-c49613295eea" style="stroke-miterlimit: 2; opacity: 1;"><g class="fills"></g><g class="errorbars"></g><g class="lines"><path class="js-line" d="M376.67,146.73L376.67,13.44" style="vector-effect: non-scaling-stroke; fill: none; stroke: rgb(105, 179, 162); stroke-opacity: 1; stroke-width: 2px; opacity: 1;"></path></g><g class="points"></g><g class="text"></g></g></g></g><g class="overplot"></g><path class="xlines-above crisp" d="M0,0" style="fill: none;"></path><path class="ylines-above crisp" d="M0,0" style="fill: none;"></path><g class="overlines-above"></g><g class="xaxislayer-above"><g class="x2tick"><text data-math="N" data-unformatted="0.1" style='font-family: "Open Sans", verdana, arial, sans-serif; font-size: 12px; fill: rgb(42, 63, 95); fill-opacity: 1; white-space: pre; opacity: 1;' text-anchor="middle" transform="translate(84.34,0)" x="0" y="333">0.1</text></g><g class="x2tick"><text data-math="N" data-unformatted="0.2" style='font-family: "Open Sans", verdana, arial, sans-serif; font-size: 12px; fill: rgb(42, 63, 95); fill-opacity: 1; white-space: pre; opacity: 1;' text-anchor="middle" transform="translate(220.82,0)" x="0" y="333">0.2</text></g><g class="x2tick"><text data-math="N" data-unformatted="0.3" style='font-family: "Open Sans", verdana, arial, sans-serif; font-size: 12px; fill: rgb(42, 63, 95); fill-opacity: 1; white-space: pre; opacity: 1;' text-anchor="middle" transform="translate(357.31,0)" x="0" y="333">0.3</text></g><g class="x2tick"><text data-math="N" data-unformatted="0.4" style='font-family: "Open Sans", verdana, arial, sans-serif; font-size: 12px; fill: rgb(42, 63, 95); fill-opacity: 1; white-space: pre; opacity: 1;' text-anchor="middle" transform="translate(493.79,0)" x="0" y="333">0.4</text></g><g class="x2tick"><text data-math="N" data-unformatted="0.5" style='font-family: "Open Sans", verdana, arial, sans-serif; font-size: 12px; fill: rgb(42, 63, 95); fill-opacity: 1; white-space: pre; opacity: 1;' text-anchor="middle" transform="translate(630.27,0)" x="0" y="333">0.5</text></g><g class="x2tick"><text data-math="N" data-unformatted="0.6" style='font-family: "Open Sans", verdana, arial, sans-serif; font-size: 12px; fill: rgb(42, 63, 95); fill-opacity: 1; white-space: pre; opacity: 1;' text-anchor="middle" transform="translate(766.75,0)" x="0" y="333">0.6</text></g></g><g class="yaxislayer-above"><g class="y2tick"><text data-math="N" data-unformatted="0" style='font-family: "Open Sans", verdana, arial, sans-serif; font-size: 12px; fill: rgb(42, 63, 95); fill-opacity: 1; white-space: pre; opacity: 1;' text-anchor="end" transform="translate(0,308.3299999999999)" x="79" y="4.199999999999999">0</text></g><g class="y2tick"><text data-math="N" data-unformatted="1" style='font-family: "Open Sans", verdana, arial, sans-serif; font-size: 12px; fill: rgb(42, 63, 95); fill-opacity: 1; white-space: pre; opacity: 1;' text-anchor="end" transform="translate(0,272.76)" x="79" y="4.199999999999999">1</text></g><g class="y2tick"><text data-math="N" data-unformatted="2" style='font-family: "Open Sans", verdana, arial, sans-serif; font-size: 12px; fill: rgb(42, 63, 95); fill-opacity: 1; white-space: pre; opacity: 1;' text-anchor="end" transform="translate(0,237.19999999999996)" x="79" y="4.199999999999999">2</text></g><g class="y2tick"><text data-math="N" data-unformatted="3" style='font-family: "Open Sans", verdana, arial, sans-serif; font-size: 12px; fill: rgb(42, 63, 95); fill-opacity: 1; white-space: pre; opacity: 1;' text-anchor="end" transform="translate(0,201.62999999999997)" x="79" y="4.199999999999999">3</text></g><g class="y2tick"><text data-math="N" data-unformatted="4" style='font-family: "Open Sans", verdana, arial, sans-serif; font-size: 12px; fill: rgb(42, 63, 95); fill-opacity: 1; white-space: pre; opacity: 1;' text-anchor="end" transform="translate(0,166.05999999999997)" x="79" y="4.199999999999999">4</text></g></g><g class="overaxes-above"></g></g></g><g class="polarlayer"></g><g class="smithlayer"></g><g class="ternarylayer"></g><g class="geolayer"></g><g class="funnelarealayer"></g><g class="pielayer"></g><g class="iciclelayer"></g><g class="treemaplayer"></g><g class="sunburstlayer"></g><g class="glimages"></g>
</g>
<g transform="translate(0.0, 0.0)">
<defs id="topdefs-c65d69"><g class="clips"></g><clippath id="legendc65d69"><rect height="143" width="127" x="0" y="0"></rect></clippath></defs><g class="indicatorlayer"></g><g class="layer-above"><g class="imagelayer"></g><g class="shapelayer"></g></g><g class="infolayer"><g class="legend" pointer-events="all" transform="translate(780.74,188)"><rect class="bg" height="143" shape-rendering="crispEdges" style="stroke: rgb(68, 68, 68); stroke-opacity: 1; fill: rgb(255, 255, 255); fill-opacity: 1; stroke-width: 0px;" width="127" x="0" y="0"></rect><g class="scrollbox" clip-path="url(#legendc65d69)" transform=""><text class="legendtitletext" data-math="N" data-unformatted="Legend" style='font-family: "Open Sans", verdana, arial, sans-serif; font-size: 14px; fill: rgb(42, 63, 95); fill-opacity: 1; white-space: pre;' text-anchor="start" x="2" y="18.2">Legend</text><g class="groups"><g class="traces" style="opacity: 1;" transform="translate(0,32.7)"><text class="legendtext" data-math="N" data-unformatted="Train Dataset" style='font-family: "Open Sans", verdana, arial, sans-serif; font-size: 12px; fill: rgb(42, 63, 95); fill-opacity: 1; white-space: pre;' text-anchor="start" x="40" y="4.680000000000001">Train Dataset</text><g class="layers"><g class="legendfill"><path class="js-fill" d="M5,-2h30v6h-30z" style="stroke-width: 0; fill: rgb(0, 0, 139); fill-opacity: 0.5;"></path></g><g class="legendlines"><path class="js-line" d="M5,-2h30" style="fill: none; stroke: rgb(0, 0, 139); stroke-opacity: 1; stroke-width: 2px;"></path></g><g class="legendsymbols"><g class="legendpoints"></g></g></g><rect class="legendtoggle" height="19" pointer-events="all" style="cursor: pointer; fill: rgb(0, 0, 0); fill-opacity: 0;" width="121.234375" x="0" y="-9.5"></rect></g><g class="traces" style="opacity: 1;" transform="translate(0,51.7)"><text class="legendtext" data-math="N" data-unformatted="Train Mean" style='font-family: "Open Sans", verdana, arial, sans-serif; font-size: 12px; fill: rgb(42, 63, 95); fill-opacity: 1; white-space: pre;' text-anchor="start" x="40" y="4.680000000000001">Train Mean</text><g class="layers" style="opacity: 1;"><g class="legendfill"></g><g class="legendlines"><path class="js-line" d="M5,0h30" style="fill: none; stroke: rgb(0, 0, 139); stroke-opacity: 1; stroke-dasharray: 9px, 9px; stroke-width: 2px;"></path></g><g class="legendsymbols"><g class="legendpoints"><path class="scatterpts" d="M3,0A3,3 0 1,1 0,-3A3,3 0 0,1 3,0Z" style="opacity: 1; stroke-width: 0px; fill: rgb(0, 0, 139); fill-opacity: 1;" transform="translate(20,0)"></path></g></g></g><rect class="legendtoggle" height="19" pointer-events="all" style="cursor: pointer; fill: rgb(0, 0, 0); fill-opacity: 0;" width="121.234375" x="0" y="-9.5"></rect></g><g class="traces" style="opacity: 1;" transform="translate(0,70.7)"><text class="legendtext" data-math="N" data-unformatted="Train Median" style='font-family: "Open Sans", verdana, arial, sans-serif; font-size: 12px; fill: rgb(42, 63, 95); fill-opacity: 1; white-space: pre;' text-anchor="start" x="40" y="4.680000000000001">Train Median</text><g class="layers" style="opacity: 1;"><g class="legendfill"></g><g class="legendlines"><path class="js-line" d="M5,0h30" style="fill: none; stroke: rgb(0, 0, 139); stroke-opacity: 1; stroke-width: 2px;"></path></g><g class="legendsymbols"><g class="legendpoints"></g></g></g><rect class="legendtoggle" height="19" pointer-events="all" style="cursor: pointer; fill: rgb(0, 0, 0); fill-opacity: 0;" width="121.234375" x="0" y="-9.5"></rect></g><g class="traces" style="opacity: 1;" transform="translate(0,89.7)"><text class="legendtext" data-math="N" data-unformatted="Test Dataset" style='font-family: "Open Sans", verdana, arial, sans-serif; font-size: 12px; fill: rgb(42, 63, 95); fill-opacity: 1; white-space: pre;' text-anchor="start" x="40" y="4.680000000000001">Test Dataset</text><g class="layers"><g class="legendfill"><path class="js-fill" d="M5,-2h30v6h-30z" style="stroke-width: 0; fill: rgb(105, 179, 162); fill-opacity: 0.5;"></path></g><g class="legendlines"><path class="js-line" d="M5,-2h30" style="fill: none; stroke: rgb(105, 179, 162); stroke-opacity: 1; stroke-width: 2px;"></path></g><g class="legendsymbols"><g class="legendpoints"></g></g></g><rect class="legendtoggle" height="19" pointer-events="all" style="cursor: pointer; fill: rgb(0, 0, 0); fill-opacity: 0;" width="121.234375" x="0" y="-9.5"></rect></g><g class="traces" style="opacity: 1;" transform="translate(0,108.7)"><text class="legendtext" data-math="N" data-unformatted="Test Mean" style='font-family: "Open Sans", verdana, arial, sans-serif; font-size: 12px; fill: rgb(42, 63, 95); fill-opacity: 1; white-space: pre;' text-anchor="start" x="40" y="4.680000000000001">Test Mean</text><g class="layers" style="opacity: 1;"><g class="legendfill"></g><g class="legendlines"><path class="js-line" d="M5,0h30" style="fill: none; stroke: rgb(105, 179, 162); stroke-opacity: 1; stroke-dasharray: 9px, 9px; stroke-width: 2px;"></path></g><g class="legendsymbols"><g class="legendpoints"><path class="scatterpts" d="M3,0A3,3 0 1,1 0,-3A3,3 0 0,1 3,0Z" style="opacity: 1; stroke-width: 0px; fill: rgb(105, 179, 162); fill-opacity: 1;" transform="translate(20,0)"></path></g></g></g><rect class="legendtoggle" height="19" pointer-events="all" style="cursor: pointer; fill: rgb(0, 0, 0); fill-opacity: 0;" width="121.234375" x="0" y="-9.5"></rect></g><g class="traces" style="opacity: 1;" transform="translate(0,127.7)"><text class="legendtext" data-math="N" data-unformatted="Test Median" style='font-family: "Open Sans", verdana, arial, sans-serif; font-size: 12px; fill: rgb(42, 63, 95); fill-opacity: 1; white-space: pre;' text-anchor="start" x="40" y="4.680000000000001">Test Median</text><g class="layers" style="opacity: 1;"><g class="legendfill"></g><g class="legendlines"><path class="js-line" d="M5,0h30" style="fill: none; stroke: rgb(105, 179, 162); stroke-opacity: 1; stroke-width: 2px;"></path></g><g class="legendsymbols"><g class="legendpoints"></g></g></g><rect class="legendtoggle" height="19" pointer-events="all" style="cursor: pointer; fill: rgb(0, 0, 0); fill-opacity: 0;" width="121.234375" x="0" y="-9.5"></rect></g></g></g><rect class="scrollbar" height="0" rx="20" ry="3" style="fill: rgb(128, 139, 164); fill-opacity: 1;" width="0" x="0" y="0"></rect></g><g class="g-gtitle"><text class="gtitle" data-math="N" data-unformatted="Mean Red Relative Intensity" dy="0em" style='font-family: "Open Sans", verdana, arial, sans-serif; font-size: 17px; fill: rgb(42, 63, 95); opacity: 1; font-weight: normal; white-space: pre;' text-anchor="middle" x="460" y="50">Mean Red Relative Intensity</text></g><g class="g-xtitle"></g><g class="g-x2title"><text class="x2title" data-math="N" data-unformatted="Mean Red Relative Intensity" style='font-family: "Open Sans", verdana, arial, sans-serif; font-size: 14px; fill: rgb(42, 63, 95); opacity: 1; font-weight: normal; white-space: pre;' text-anchor="middle" x="423.5" y="360.8">Mean Red Relative Intensity</text></g><g class="g-ytitle"></g><g class="g-y2title"><text class="y2title" data-math="N" data-unformatted="Probability Density" style='font-family: "Open Sans", verdana, arial, sans-serif; font-size: 14px; fill: rgb(42, 63, 95); opacity: 1; font-weight: normal; white-space: pre;' text-anchor="middle" transform="rotate(-90,46.559375,240.79999999999995)" x="46.559375" y="240.79999999999995">Probability Density</text></g><g class="annotation" data-index="0" style="opacity: 1;"><g class="annotation-text-g" transform="rotate(0,423.5,88.49999999999999)"><g class="cursor-pointer" transform="translate(284,77)"><rect class="bg" height="22" style="stroke-width: 1px; stroke: rgb(0, 0, 0); stroke-opacity: 0; fill: rgb(0, 0, 0); fill-opacity: 0;" width="279" x="0.5" y="0.5"></rect><text class="annotation-text" data-math="N" data-unformatted="Drift Score (Kolmogorov-Smirnov)" style='font-family: "Open Sans", verdana, arial, sans-serif; font-size: 16px; fill: rgb(42, 63, 95); fill-opacity: 1; white-space: pre;' text-anchor="middle" x="139.8984375" y="18">Drift Score (Kolmogorov-Smirnov)</text></g></g></g><g class="annotation" data-index="1" style="opacity: 1;"><g class="annotation-text-g" transform="rotate(0,423.5,150.09999999999997)"><g class="cursor-pointer" transform="translate(357,139)"><rect class="bg" height="22" style="stroke-width: 1px; stroke: rgb(0, 0, 0); stroke-opacity: 0; fill: rgb(0, 0, 0); fill-opacity: 0;" width="133" x="0.5" y="0.5"></rect><text class="annotation-text" data-math="N" data-unformatted="Distribution Plot" style='font-family: "Open Sans", verdana, arial, sans-serif; font-size: 16px; fill: rgb(42, 63, 95); fill-opacity: 1; white-space: pre;' text-anchor="middle" x="66.4453125" y="18">Distribution Plot</text></g></g></g></g><g class="menulayer"></g><g class="zoomlayer"></g>
</g>
<g transform="translate(0.0, 0.0)">
<g class="hoverlayer"></g>
</g>
</svg>